<svg version="1.1" id="Layer_1" xmlns="http://www.w3.org/2000/svg" xmlns:xlink="http://www.w3.org/1999/xlink" x="0px" y="0px" viewBox="0 0 500 500" style="width: 159px;" xml:space="preserve" data-imageid="beach-umbrella-23" imageName="Beach Umbrella" class="illustrations_image">
<style type="text/css">
	.st0_beach-umbrella-23{fill:#68E1FD;}
	.st1_beach-umbrella-23{fill:#231F20;}
	.st2_beach-umbrella-23{fill:#FFFFFF;}
	.st3_beach-umbrella-23{fill:#D1D3D4;}
</style>
<g id="Waters_beach-umbrella-23">
	<path class="st0_beach-umbrella-23 targetColor" d="M345.6,424.6c3.1,0,6.2,0,9.4-0.1c13.8-0.3,30.3,2.7,42-6.1c4.2-3.2,8.3-6.9,13.4-8.4c4.5-1.3,9.4-0.8,14-1.7&#10;&#9;&#9;c20.6-4.3,19.3-24.6,8.4-37.6c-10.6-12.5-27-17-39.5-27.1c-7.6-6.1-18.3-4.9-27-4.9c-23-0.2-46,7.5-65.8,22.7&#10;&#9;&#9;c-6.7,5.1-12.9,8.8-17.9,16.7c-5.7,9.1-9.8,19.1-12.2,29.5c-0.6,2.6-1.1,5.3-0.4,7.9c1.6,6.3,8.9,8.4,13.3,8.5&#10;&#9;&#9;C304,424.4,324.9,424.8,345.6,424.6L345.6,424.6z" style="fill: rgb(104, 225, 253);"/>
	<path class="st1_beach-umbrella-23" d="M371.8,425.4c-2.5,0-5.1-0.1-7.7-0.1c-3.2-0.1-6.2-0.2-9.2-0.1c-3.1,0.1-6.2,0.1-9.4,0.1l0,0&#10;&#9;&#9;c-18.1,0.2-38,0-62.5-0.7c-4.3-0.1-12.1-2.2-13.9-9.1c-0.7-2.6-0.2-5.5,0.4-8.2c2.4-10.5,6.6-20.6,12.3-29.7&#10;&#9;&#9;c4.2-6.6,9.2-10.3,14.6-14.3c1.1-0.8,2.3-1.7,3.5-2.6c19.7-15.1,42.6-23,66.2-22.8c1.2,0,2.5,0,3.8,0c7.9-0.2,16.9-0.3,23.7,5.1&#10;&#9;&#9;c5,4.1,10.9,7.3,16.5,10.4c8.2,4.6,16.8,9.3,23.1,16.8c6.9,8.2,9.6,18.5,6.9,26.4c-1.5,4.4-5.5,10.2-15.7,12.3&#10;&#9;&#9;c-2.1,0.4-4.2,0.6-6.3,0.7c-2.5,0-5.1,0.4-7.5,1c-4,1.2-7.5,3.9-10.9,6.5c-0.8,0.6-1.5,1.2-2.3,1.8&#10;&#9;&#9;C390,424.4,381,425.4,371.8,425.4L371.8,425.4z M357,423.7c2.3,0,4.7,0.1,7.2,0.1c11.5,0.3,23.3,0.7,32.4-6.1&#10;&#9;&#9;c0.8-0.6,1.5-1.2,2.3-1.8c3.5-2.7,7-5.5,11.3-6.8c2.6-0.7,5.2-1,7.9-1.1c2.1-0.1,4.1-0.3,6.1-0.7c7.5-1.6,12.6-5.5,14.6-11.4&#10;&#9;&#9;c2.6-7.4,0-17.3-6.6-25.1c-6.2-7.3-14.6-12-22.7-16.5c-5.7-3.1-11.5-6.4-16.7-10.5c-6.3-5.1-15.1-5-22.8-4.8c-1.5,0-3,0-4.5,0&#10;&#9;&#9;c-23,0-45.4,7.8-64.7,22.5c-1.2,0.9-2.4,1.8-3.5,2.6c-5.2,3.8-10.1,7.5-14.2,13.9c-5.6,9-9.7,18.9-12.1,29.3&#10;&#9;&#9;c-0.5,2.4-1.1,5.1-0.4,7.5c1.6,6.1,8.7,7.9,12.6,8c24.5,0.7,44.4,0.9,62.5,0.7l0,0c3.1,0,6.2-0.1,9.4-0.1L357,423.7L357,423.7z"/>
	<path class="st2_beach-umbrella-23" d="M368,385.8c-2,0-4-0.1-6-0.4c-0.4-0.1-0.7-0.4-0.6-0.8c0-0.4,0.4-0.6,0.7-0.6c0,0,0.1,0,0.1,0&#10;&#9;&#9;c10.9,1.4,21.9-1.2,31.1-7.2c0.3-0.2,0.8-0.1,1,0.2s0.1,0.8-0.2,1C386.3,383,377.2,385.7,368,385.8L368,385.8z"/>
	<path class="st2_beach-umbrella-23" d="M407.4,380.2c-0.4,0-0.7-0.3-0.7-0.7c0-0.2,0.1-0.4,0.3-0.6l8.6-5.8c0.3-0.2,0.8-0.1,1,0.2&#10;&#9;&#9;c0.2,0.3,0.1,0.7-0.2,0.9l-8.6,5.8C407.7,380.1,407.6,380.2,407.4,380.2z"/>
	<path class="st2_beach-umbrella-23" d="M326.7,415.4c-0.3,0-0.6-0.2-0.7-0.5c-0.1-0.4,0.1-0.8,0.5-0.9c0,0,0,0,0,0c4.2-1.1,7.5-6,7.6-11&#10;&#9;&#9;c0-0.4,0.3-0.7,0.6-0.7c0,0,0.1,0,0.1,0c0.4,0,0.7,0.3,0.7,0.7c0,0,0,0,0,0c-0.1,5.7-3.8,11-8.6,12.3&#10;&#9;&#9;C326.8,415.4,326.7,415.4,326.7,415.4z"/>
	<path class="st2_beach-umbrella-23" d="M378.6,414.5c-0.3,0-0.6,0-0.9,0c-0.4,0-0.7-0.3-0.7-0.7c0,0,0,0,0,0c0-0.4,0.3-0.7,0.7-0.7&#10;&#9;&#9;c5.5,0.2,10.9-1.4,15.4-4.6c1.3-1,2.6-2.1,3.9-3.2c2.6-2.2,5.2-4.6,8.6-5.7c2-0.6,4-0.9,6.1-1c1.5-0.1,2.9-0.3,4.4-0.6&#10;&#9;&#9;c5.9-1.4,10.6-6,12.2-11.8c0.1-0.4,0.5-0.6,0.9-0.5c0.4,0.1,0.6,0.5,0.5,0.9c-1.7,6.4-6.8,11.3-13.2,12.9c-1.5,0.3-3,0.5-4.6,0.6&#10;&#9;&#9;c-1.9,0.1-3.9,0.4-5.7,1c-3.1,1-5.5,3.1-8.1,5.4c-1.3,1.1-2.6,2.3-4,3.3C389.5,412.8,384.1,414.6,378.6,414.5L378.6,414.5z"/>
</g>
<g id="Sand_beach-umbrella-23">
	<path class="st2_beach-umbrella-23" d="M356.2,318.2c-28-9.5-56.9-15.4-86.1-15.9c-48.8-0.9-95.3,16-140,37c-17.3,8.1-34.7,17.1-49.6,30.4&#10;&#9;&#9;c-10.5,9.3-25.4,31.3-15.3,47.5c2.1,3.3,5.2,5.8,8.9,7.2c19.8,8.3,42.5,2.4,62.7-0.6c58.6-8.8,119.2,13.5,176.9-6.6&#10;&#9;&#9;c4.5-1.6,10-5.3,8.8-10.6c-0.9-4.3-5.9-6.2-6.6-10.6c-0.9-5,4.2-8.5,8.5-10c28.4-9.9,60.4-8.8,85.2-27.8c2-1.5,4-3.3,4.7-5.9&#10;&#9;&#9;c1.6-5.9-3.9-10.9-8.8-13.3C389.4,330.9,373,324,356.2,318.2L356.2,318.2z"/>
	<path class="st1_beach-umbrella-23" d="M97.4,429.2c-8.1,0.2-16.1-1.3-23.7-4.3c-3.8-1.5-7-4.1-9.2-7.5c-4.5-7.3-4.6-16.6-0.1-26.9&#10;&#9;&#9;c3.7-8.1,9-15.4,15.5-21.4c15.5-13.8,33.8-23,49.8-30.5c40.2-18.9,88.3-38,140.4-37.1c27.5,0.5,56.5,5.9,86.3,16l0,0&#10;&#9;&#9;c16.8,5.8,33.3,12.7,49.2,20.7c5.3,2.7,10.9,8,9.2,14.1c-0.8,2.8-2.8,4.6-4.9,6.2c-16.1,12.4-35.6,16.4-54.5,20.2&#10;&#9;&#9;c-10.3,2.1-20.9,4.2-30.9,7.7c-4.2,1.5-8.8,4.8-8,9.2c0.4,2,1.7,3.5,3.1,5s3,3.2,3.5,5.5c1.2,5.6-4.3,9.6-9.3,11.4&#10;&#9;&#9;c-33.4,11.7-68.4,9.1-102.1,6.6c-24.7-1.8-50.2-3.7-74.9,0c-3.1,0.5-6.2,1-9.4,1.5C117.5,427.5,107.4,429.2,97.4,429.2L97.4,429.2z&#10;&#9;&#9; M266.4,302.9c-50.4,0-97,18.6-136.1,37c-15.9,7.5-34.1,16.5-49.5,30.2c-6.4,5.9-11.6,13-15.1,20.9c-3,6.9-5.4,16.9,0,25.6&#10;&#9;&#9;c2.1,3.1,5.1,5.6,8.6,6.9c16.6,7,35.1,3.9,52.9,0.9c3.2-0.5,6.3-1.1,9.4-1.5c24.9-3.7,50.4-1.9,75.2,0c33.6,2.5,68.4,5,101.6-6.6&#10;&#9;&#9;c4.5-1.6,9.4-5.1,8.4-9.8c-0.4-1.9-1.7-3.4-3.1-4.9s-3.1-3.3-3.5-5.7c-1-5.3,4.2-9.1,8.9-10.8c10.1-3.5,20.7-5.7,31.1-7.8&#10;&#9;&#9;c18.7-3.8,38-7.7,53.9-19.9c1.9-1.5,3.8-3.1,4.4-5.5c1.5-5.4-3.6-10.1-8.5-12.5c-15.9-8-32.2-14.8-49-20.6&#10;&#9;&#9;c-29.6-10.1-58.5-15.4-85.9-15.9L266.4,302.9L266.4,302.9z"/>
	<path class="st1_beach-umbrella-23" d="M281,411.4c-0.9,0-1.8,0-2.7-0.1c-0.4,0-0.7-0.3-0.7-0.7c0,0,0,0,0,0c0-0.4,0.3-0.7,0.7-0.7c0,0,0,0,0,0&#10;&#9;&#9;c8.6,0.4,17.1-1.2,24.9-4.8c0.4-0.2,0.8,0,0.9,0.4s0,0.8-0.4,0.9C296.6,409.7,288.9,411.4,281,411.4L281,411.4z"/>
</g>
<ellipse class="st3_beach-umbrella-23" cx="190.7" cy="385.1" rx="93" ry="13.5"/>
<g id="Umbrella_beach-umbrella-23">
	<path class="st2_beach-umbrella-23" d="M224.2,70.3c0.1,0.3,0.2,0.5,0.3,0.8l1.8,8.3c-0.7,0.1-1.3,0.3-2,0.4c-2,0.4-4,0.9-5.9,1.5l-1.8-8.5&#10;&#9;&#9;c-0.7-2.1,0.4-4.4,2.5-5.1C221.2,67.1,223.5,68.2,224.2,70.3L224.2,70.3z"/>
	<path class="st1_beach-umbrella-23" d="M218.4,82.1c-0.3,0-0.6-0.2-0.7-0.6l-1.8-8.5c-0.5-2.6,1.1-5.1,3.7-5.6c2.2-0.5,4.4,0.6,5.3,2.6l0,0&#10;&#9;&#9;c0.1,0.3,0.3,0.7,0.3,1l1.9,8.3c0,0.2,0,0.4-0.1,0.5c-0.1,0.2-0.3,0.3-0.4,0.3c-0.6,0.1-1.2,0.3-1.8,0.4h-0.1c-2,0.4-4,0.9-5.9,1.4&#10;&#9;&#9;C218.5,82,218.5,82,218.4,82.1L218.4,82.1z M220.5,68.7c-0.3,0-0.5,0-0.8,0.1c-1.8,0.4-2.9,2.2-2.5,3.9l1.6,7.8&#10;&#9;&#9;c1.7-0.5,3.5-0.9,5.2-1.3h0.1l1.2-0.3l-1.7-7.6c0-0.2-0.1-0.5-0.2-0.7l0,0C223,69.5,221.8,68.7,220.5,68.7L220.5,68.7z"/>
	<path class="st0_beach-umbrella-23 targetColor" d="M107.2,186.9c4.1,18.3,66,20.1,138.3,4.1s127.6-44,123.6-62.3s-72.5-64.9-144.8-48.8S103.1,168.6,107.2,186.9&#10;&#9;&#9;L107.2,186.9z" style="fill: rgb(104, 225, 253);"/>
	<path class="st1_beach-umbrella-23" d="M157.4,202.6c-2.3,0-4.5,0-6.7-0.1c-26.5-0.8-42.2-6.3-44.2-15.5c-4.1-18.5,44.9-91.7,117.6-107.8&#10;&#9;&#9;c73.6-16.4,141.5,31.1,145.6,49.3c4.2,19-50.3,46.7-124.1,63.1C213.5,198.8,182.5,202.6,157.4,202.6L157.4,202.6z M107.9,186.8&#10;&#9;&#9;c1.9,8.4,17.5,13.6,42.9,14.4c26.1,0.8,59.6-3.1,94.6-10.9c71.8-16,127-43.5,123-61.4c-2-8.8-19.8-24.9-46.4-36.8&#10;&#9;&#9;c-18.5-8.3-55.7-20.8-97.5-11.5C152.4,96.6,103.8,168.6,107.9,186.8L107.9,186.8L107.9,186.8z"/>
	<path class="st1_beach-umbrella-23" d="M369,128.7c4,17.9-48.6,44.9-118.4,61.1c-1.7,0.4-3.4,0.8-5.1,1.2l-3.6,0.8c-70.7,15.2-130.6,13.2-134.6-4.9&#10;&#9;&#9;s49.7-45.4,120.6-61.6l3-0.7c1.8-0.4,3.5-0.8,5.2-1.1C306,108.7,365.1,110.8,369,128.7L369,128.7z"/>
	<path class="st1_beach-umbrella-23" d="M157.5,202.6c-29.2,0-48.7-5.3-51-15.6c-4.1-18.6,49.1-46,121.1-62.4c1-0.2,2-0.5,3-0.7l5.3-1.1&#10;&#9;&#9;c71-15,129.8-12.5,133.9,5.7s-48.2,45.5-119,61.9l-5.1,1.2c-1.2,0.3-2.4,0.5-3.6,0.8C210.1,199.3,180.7,202.6,157.5,202.6&#10;&#9;&#9;L157.5,202.6z M318.9,114.5c-22.9,0-51.8,3.2-82.7,9.7l-5.2,1.1c-1,0.2-2,0.4-3,0.7c-70.1,16-123.9,43.2-120,60.7&#10;&#9;&#9;s63.9,19.4,133.9,4.3c1.2-0.3,2.4-0.5,3.6-0.8c1.7-0.4,3.4-0.8,5.1-1.2c68.9-16,121.8-43,117.9-60.3l0,0&#10;&#9;&#9;C366.3,119.4,347.2,114.5,318.9,114.5L318.9,114.5z"/>
	<path class="st2_beach-umbrella-23" d="M336.6,114.5c-15-1.4-34.3-0.9-56.1,1.7c-21-28.9-51.9-36.5-53-36.8C280.4,70.5,321.6,101.1,336.6,114.5&#10;&#9;&#9;L336.6,114.5z"/>
	<path class="st1_beach-umbrella-23" d="M280.5,116.9c-0.2,0-0.4-0.1-0.6-0.3c-20.1-27.7-49.3-35.7-52.6-36.5c-0.4-0.1-0.6-0.5-0.5-0.9&#10;&#9;&#9;c0.1-0.3,0.3-0.5,0.5-0.5c53.1-9,94.4,21.7,109.7,35.2c0.2,0.2,0.3,0.5,0.2,0.8c-0.1,0.3-0.4,0.4-0.7,0.4&#10;&#9;&#9;C321.5,113.7,302.1,114.3,280.5,116.9L280.5,116.9L280.5,116.9z M230.8,79.6c8.8,2.8,32.7,12.1,50,35.8c20.5-2.4,39-3,53.8-1.8&#10;&#9;&#9;C318.6,99.8,280,72.7,230.8,79.6L230.8,79.6z"/>
	<path class="st2_beach-umbrella-23" d="M215.1,82.3c0,0-21.4,17.9-29.6,54.6c-21.3,6.9-39.5,14.6-53,22.2c4-11.3,9.6-22,16.7-31.6&#10;&#9;&#9;C163.6,108.7,187.5,89.1,215.1,82.3L215.1,82.3z"/>
	<path class="st1_beach-umbrella-23" d="M132.6,159.8c-0.2,0-0.3-0.1-0.4-0.2c-0.2-0.2-0.3-0.5-0.2-0.8c4-11.4,9.7-22.1,16.8-31.8&#10;&#9;&#9;c17-22.5,41.8-39.5,66.2-45.5c0.4-0.1,0.7,0.1,0.9,0.5c0.1,0.3,0,0.6-0.2,0.7c-0.2,0.2-21.4,18.2-29.3,54.2&#10;&#9;&#9;c-0.1,0.2-0.2,0.4-0.5,0.5c-21,6.8-39.3,14.5-52.9,22.2C132.8,159.8,132.7,159.8,132.6,159.8L132.6,159.8z M212.6,83.7&#10;&#9;&#9;c-23.3,6.5-46.6,22.9-62.8,44.3c-6.7,9.1-12.1,19-16,29.6c13.4-7.4,31-14.7,51.1-21.2c3.2-14.7,9.3-28.6,17.9-40.9&#10;&#9;&#9;C205.8,91.2,209,87.3,212.6,83.7L212.6,83.7z"/>
	<path class="st2_beach-umbrella-23" d="M275.8,350c0.8-0.2,1.6-0.5,2.4-0.6c2.3-0.7,4.6-1,7-0.9h0.4l-35-158.7L236,123.5c-1.7,0.4-3.5,0.8-5.2,1.1&#10;&#9;&#9;c-1,0.2-2,0.5-3,0.7l14.1,66.4l33.7,158.3L275.8,350L275.8,350z"/>
	<path class="st1_beach-umbrella-23" d="M275.6,350.8c-0.1,0-0.2,0-0.4-0.1c-0.2-0.1-0.3-0.3-0.3-0.5l-47.9-224.8c-0.1-0.4,0.2-0.7,0.5-0.8l0.5-0.1&#10;&#9;&#9;l2.5-0.6l1.9-0.4l3.3-0.7c0.4-0.1,0.7,0.2,0.8,0.5l49.6,225c0.1,0.4-0.2,0.8-0.5,0.8c-0.1,0-0.1,0-0.2,0h-0.4&#10;&#9;&#9;c-2.3,0-4.6,0.2-6.7,0.9c-0.7,0.2-1.4,0.4-2,0.5l-0.4,0.1l-0.1,0L275.6,350.8L275.6,350.8z M228.6,125.9l47.6,223.3&#10;&#9;&#9;c0.6-0.2,1.2-0.3,1.9-0.5c2.2-0.6,4.4-0.9,6.7-0.9l-49.2-223.4c-0.9,0.2-1.8,0.4-2.6,0.6l-1.9,0.4L228.6,125.9L228.6,125.9z"/>
	<path class="st2_beach-umbrella-23" d="M271.6,352.4c1.1-1.1,2.5-2,3.9-2.6c2-0.8,8-3.6,13.7,0"/>
	<path class="st1_beach-umbrella-23" d="M271.6,353.1c-0.2,0-0.4-0.1-0.5-0.2c-0.3-0.3-0.3-0.7,0-1c1.2-1.2,2.6-2.1,4.2-2.8l0.5-0.2&#10;&#9;&#9;c2.5-1,8.2-3.3,13.8,0.3c0.3,0.2,0.4,0.6,0.2,0.9c0,0,0,0,0,0.1c-0.2,0.3-0.6,0.4-0.9,0.2c0,0,0,0-0.1,0c-5-3.2-10.1-1.1-12.6-0.1&#10;&#9;&#9;l-0.5,0.2c-1.4,0.6-2.6,1.5-3.7,2.5C271.9,353.1,271.7,353.1,271.6,353.1L271.6,353.1z"/>
</g>
<g id="Beach_Chair_beach-umbrella-23">
	<path class="st1_beach-umbrella-23" d="M277,385.9c-0.8,0-1.6-0.4-2.2-1L162.3,248.3c-1-1.2-0.7-3,0.5-3.9c1.2-0.9,2.9-0.8,3.8,0.4l112.5,136.5&#10;&#9;&#9;c1,1.2,0.8,3-0.4,3.9C278.2,385.7,277.6,385.9,277,385.9L277,385.9z"/>
	<path class="st1_beach-umbrella-23" d="M162.9,382.5c-1.5,0-2.8-1.3-2.8-2.8c0-0.6,0.2-1.1,0.5-1.6l50-71.2c0.9-1.3,2.6-1.6,3.9-0.8s1.6,2.6,0.8,3.9&#10;&#9;&#9;c0,0,0,0.1-0.1,0.1l-50,71.2C164.6,382,163.8,382.5,162.9,382.5z"/>
	<path class="st0_beach-umbrella-23 targetColor" d="M168.9,235.3H98.2c0,0-0.3,51.7,23.9,79.5s55.9,27.8,65,28.1s40.5,0,40.5,0s-28.2-5.7-42.4-36&#10;&#9;&#9;S168.9,235.3,168.9,235.3L168.9,235.3z" style="fill: rgb(104, 225, 253);"/>
	<path class="st1_beach-umbrella-23" d="M201.5,343.7c-6,0-11.5,0-14.5-0.1h-1c-10.1-0.3-40.9-1.2-64.5-28.3c-24.1-27.6-24-79.4-24-80&#10;&#9;&#9;c0-0.4,0.3-0.7,0.7-0.7h70.7c0.4,0,0.7,0.3,0.7,0.7c0,0.4,2.3,41.6,16.2,71.3c13.8,29.5,41.6,35.5,41.9,35.6&#10;&#9;&#9;c0.3,0.1,0.6,0.4,0.6,0.8c0,0.4-0.3,0.6-0.7,0.6C227.3,343.6,213.4,343.7,201.5,343.7L201.5,343.7z M98.9,236&#10;&#9;&#9;c0.1,6.2,1.5,52.8,23.7,78.3c23.2,26.6,53.5,27.5,63.5,27.8h1c6.8,0.2,26.7,0.1,35.8,0c-16.9-6.1-30.8-18.7-38.3-35&#10;&#9;&#9;c-13.1-27.9-15.9-65.8-16.3-71.2L98.9,236z"/>
	<path class="st0_beach-umbrella-23 targetColor" d="M172.7,341.8c0,0,22.5-3.8,30.3-20.7h71.1c0,0-12,15.9-18.1,19.4s-28.5,2.4-28.5,2.4S181.2,341.8,172.7,341.8&#10;&#9;&#9;L172.7,341.8z" style="fill: rgb(104, 225, 253);"/>
	<path class="st1_beach-umbrella-23" d="M234.8,343.7c-4,0-7-0.1-7.4-0.1s-46.4-1.1-54.8-1.1c-0.4,0-0.7-0.3-0.7-0.7c0-0.3,0.2-0.6,0.6-0.7&#10;&#9;&#9;c0.2,0,22.2-3.9,29.9-20.3c0.1-0.2,0.4-0.4,0.6-0.4h71.1c0.4,0,0.7,0.3,0.7,0.7c0,0.1-0.1,0.3-0.1,0.4&#10;&#9;&#9;c-0.5,0.6-12.2,16.1-18.3,19.5C252.4,343.3,242,343.7,234.8,343.7L234.8,343.7z M178,341.2c14.8,0.2,49.1,1,49.5,1&#10;&#9;&#9;c0.2,0,22.4,1,28.1-2.3c4.9-2.8,14.2-14.4,17-18h-69.2C197.8,333.5,185.2,338.9,178,341.2z"/>
	<path class="st1_beach-umbrella-23" d="M210.1,392.2c-0.8,0-1.6-0.4-2.2-1L95.5,254.6c-1-1.2-0.9-2.9,0.3-4c1.2-1,2.9-0.9,4,0.3c0,0,0.1,0.1,0.1,0.1&#10;&#9;&#9;l112.5,136.5c1,1.2,0.8,3-0.4,3.9C211.4,392,210.8,392.2,210.1,392.2z"/>
	<path class="st1_beach-umbrella-23" d="M96,388.8c-0.6,0-1.1-0.2-1.6-0.5c-1.3-0.9-1.6-2.6-0.7-3.9l50-71.2c0.9-1.3,2.6-1.6,3.9-0.8s1.6,2.6,0.8,3.9&#10;&#9;&#9;c0,0,0,0.1-0.1,0.1l-50,71.2C97.8,388.3,96.9,388.8,96,388.8z"/>
</g>
<g id="Ball_beach-umbrella-23">
	<path class="st2_beach-umbrella-23" d="M372.3,319.8c0,8.8-3.8,17.2-10.4,23c-1.2,1.1-2.6,2.1-4,3c-6.8,4.2-14.9,5.7-22.8,4c-0.7-0.2-1.5-0.3-2.2-0.5&#10;&#9;&#9;c-9-2.6-16.4-9.3-19.9-18c-0.7-1.7-1.2-3.4-1.6-5.1c-0.4-2.1-0.7-4.2-0.7-6.4c0-7.4,2.7-14.6,7.6-20.2c0.3-0.4,0.7-0.8,1-1.1&#10;&#9;&#9;c4.7-4.9,10.9-8.1,17.6-9.1c1.1-0.2,2.2-0.3,3.3-0.3h1.2c10.5,0,20.2,5.3,25.9,14.1c0.4,0.7,0.8,1.4,1.2,2.1&#10;&#9;&#9;C371.1,309.7,372.3,314.7,372.3,319.8L372.3,319.8z"/>
	<path class="st1_beach-umbrella-23" d="M341.6,351.2c-2.2,0-4.4-0.2-6.6-0.7c-0.8-0.2-1.5-0.4-2.2-0.6c-9.2-2.7-16.7-9.5-20.3-18.4&#10;&#9;&#9;c-1.5-3.7-2.3-7.7-2.3-11.8c0-7.6,2.8-14.9,7.7-20.7c0.3-0.4,0.7-0.8,1.1-1.1c4.8-5,11.1-8.2,18-9.3c1.1-0.2,2.3-0.3,3.4-0.3&#10;&#9;&#9;c0.4,0,0.8,0,1.2,0c10.7,0,20.7,5.4,26.5,14.4c0.4,0.7,0.9,1.4,1.2,2.1c6.9,12.8,4.1,28.7-6.8,38.4&#10;&#9;&#9;C356.7,348.4,349.3,351.3,341.6,351.2L341.6,351.2z M341.6,289.8c-0.4,0-0.8,0-1.2,0c-1.1,0-2.2,0.1-3.3,0.3&#10;&#9;&#9;c-6.5,1-12.6,4.1-17.2,8.9c-0.4,0.4-0.7,0.7-1,1.1c-4.8,5.5-7.4,12.5-7.4,19.7c0,2.1,0.2,4.2,0.6,6.2c0.4,1.7,0.9,3.4,1.5,5&#10;&#9;&#9;c3.5,8.5,10.6,15,19.4,17.6c0.7,0.2,1.4,0.4,2.1,0.5c2.1,0.4,4.2,0.7,6.3,0.6c16.6,0,30-13.4,30-30c0-5-1.2-9.9-3.6-14.3&#10;&#9;&#9;c-0.4-0.7-0.8-1.4-1.2-2C361.4,294.9,351.9,289.7,341.6,289.8L341.6,289.8z"/>
	<path class="st0_beach-umbrella-23 targetColor" d="M337.9,308L337.9,308L337.9,308L337.9,308c-0.2,0.2-1.9,1.6-4.5,3.9c-5.4,4.8-14.5,13-20.2,19.5&#10;&#9;&#9;c-0.7-1.7-1.2-3.4-1.6-5.1c-0.4-2.1-0.7-4.2-0.7-6.4c0-7.4,2.7-14.6,7.6-20.2c0.3-0.4,0.7-0.8,1-1.1c5.4,1.2,10.5,3.4,15,6.7&#10;&#9;&#9;C335.7,306,336.8,307,337.9,308L337.9,308z" style="fill: rgb(104, 225, 253);"/>
	<path class="st1_beach-umbrella-23" d="M313.1,332H313c-0.2,0-0.4-0.2-0.5-0.4c-0.7-1.7-1.2-3.5-1.6-5.3c-0.4-2.1-0.7-4.3-0.7-6.5&#10;&#9;&#9;c0-7.6,2.8-14.9,7.7-20.7c0.3-0.4,0.7-0.8,1.1-1.1c0.2-0.2,0.4-0.2,0.6-0.2c5.5,1.2,10.7,3.5,15.3,6.8c1.2,0.9,2.4,1.8,3.5,2.9&#10;&#9;&#9;c0.3,0.2,0.3,0.6,0.1,0.9c0,0.1-0.1,0.1-0.2,0.2c-0.3,0.3-2,1.7-4.4,3.8c-5,4.5-14.4,12.9-20.2,19.4&#10;&#9;&#9;C313.5,331.9,313.3,332,313.1,332L313.1,332z M319.7,299.2c-0.2,0.3-0.5,0.5-0.7,0.8c-4.8,5.5-7.4,12.5-7.4,19.7&#10;&#9;&#9;c0,3.5,0.6,6.9,1.8,10.2c5.9-6.4,14.7-14.4,19.5-18.7c1.8-1.6,3.2-2.8,3.9-3.4c-0.9-0.8-1.8-1.5-2.7-2.2&#10;&#9;&#9;C329.8,302.6,324.9,300.4,319.7,299.2L319.7,299.2z"/>
	<path class="st0_beach-umbrella-23 targetColor" d="M368.7,305.2c-3.6-0.3-6.6,5.6-9.9,5.8c-6.4,0.2-9,0.5-12.7,1.2c-3,0.6-8.1-1.1-8.1-1.1l-0.3-7.2l-0.6-14.5&#10;&#9;&#9;c1.1-0.2,2.2-0.3,3.3-0.3c0.4,0,0.8,0,1.2,0c10.5,0,20.2,5.3,25.9,14.1C367.9,303.9,368.3,304.6,368.7,305.2L368.7,305.2z" style="fill: rgb(104, 225, 253);"/>
	<path class="st1_beach-umbrella-23" d="M344.7,313c-2.3-0.1-4.7-0.5-6.9-1.3c-0.3-0.1-0.5-0.3-0.5-0.6l-0.9-21.7c0-0.4,0.2-0.7,0.6-0.7&#10;&#9;&#9;c1.1-0.2,2.3-0.3,3.4-0.3h1.2c10.7,0,20.7,5.4,26.5,14.4c0.4,0.7,0.9,1.4,1.2,2.1c0.1,0.2,0.1,0.5,0,0.7c-0.1,0.2-0.4,0.3-0.6,0.3&#10;&#9;&#9;c-1.6-0.2-3.2,1.3-4.8,2.8s-3.2,2.9-5,3c-6.2,0.2-8.9,0.4-12.5,1.2C345.8,313,345.2,313,344.7,313L344.7,313z M338.7,310.5&#10;&#9;&#9;c1.3,0.4,5,1.4,7.3,1c3.8-0.8,6.5-1,12.8-1.2c1.3,0,2.7-1.3,4.1-2.6s3-2.7,4.7-3.1c-0.2-0.4-0.4-0.7-0.6-1&#10;&#9;&#9;c-5.7-9-15.8-14.2-26.4-13.8c-0.9,0-1.8,0.1-2.6,0.2L338.7,310.5L338.7,310.5z"/>
	<path class="st2_beach-umbrella-23" d="M372.3,319.8c0,8.8-3.8,17.2-10.4,23c-1.2,1.1-2.6,2.1-4,3l-17.7-32l-2.6-4.7l0,0c0,0,0.5-0.1,1.4-0.3&#10;&#9;&#9;s19.7-6,28.5-5.7c0.4,0.7,0.8,1.4,1.2,2.1C371.1,309.7,372.4,314.7,372.3,319.8L372.3,319.8z"/>
	<path class="st1_beach-umbrella-23" d="M357.9,346.5c-0.1,0-0.1,0-0.2,0c-0.2,0-0.3-0.2-0.4-0.3L337,309.5c-0.1-0.1-0.1-0.2-0.1-0.3&#10;&#9;&#9;c0-0.4,0.3-0.7,0.7-0.7c0,0,0,0,0,0h0.1l1.1-0.2c0.1,0,0.5-0.1,1.2-0.3c13.1-3.7,22.3-5.5,27.5-5.4c0.2,0,0.4,0.1,0.6,0.3&#10;&#9;&#9;c0.4,0.7,0.9,1.4,1.2,2.1c6.9,12.8,4.1,28.7-6.8,38.4c-1.3,1.1-2.7,2.2-4.1,3.1C358.2,346.5,358.1,346.5,357.9,346.5L357.9,346.5z&#10;&#9;&#9; M338.7,309.6l19.5,35.2c1.2-0.8,2.3-1.6,3.3-2.6c10.4-9.2,13.1-24.4,6.5-36.7c-0.3-0.6-0.6-1.1-1-1.7c-5.1,0-14,1.7-26.6,5.3&#10;&#9;&#9;l-1.3,0.4L338.7,309.6L338.7,309.6z"/>
	<path class="st2_beach-umbrella-23" d="M337.9,308L337.9,308l-0.2,1.2l0,0c-0.2,1.1-0.5,2.9-0.9,5.1c-1.5,8.7-3.5,24.6-1.5,35.6&#10;&#9;&#9;c-0.7-0.2-1.5-0.3-2.2-0.5c-9-2.6-16.4-9.3-19.9-18c-0.7-1.7-1.2-3.4-1.6-5.1c2.3-3.8,5.4-7,9.2-9.4c3.8-2.5,7.8-4.8,11.9-6.8&#10;&#9;&#9;C334.3,309.2,336.1,308.5,337.9,308L337.9,308z"/>
	<path class="st1_beach-umbrella-23" d="M335.2,350.5c0,0-0.1,0-0.1,0c-0.8-0.2-1.5-0.4-2.2-0.6c-9.2-2.7-16.7-9.5-20.3-18.4c-0.7-1.7-1.2-3.5-1.6-5.3&#10;&#9;&#9;c0-0.2,0-0.3,0.1-0.5c2.3-3.9,5.6-7.2,9.5-9.6c3.9-2.5,7.9-4.8,12-6.8c1.7-0.9,3.5-1.6,5.4-2.1c0.2,0,0.4,0,0.6,0.2&#10;&#9;&#9;c0.2,0.1,0.2,0.3,0.2,0.5l0,0c0,0.2-0.1,0.6-0.2,1.3c0,0,0,0.1,0,0.1c-0.2,1.1-0.5,2.8-0.9,5c-1.4,8.5-3.5,24.4-1.5,35.3&#10;&#9;&#9;c0,0.2,0,0.5-0.2,0.6C335.6,350.5,335.4,350.6,335.2,350.5L335.2,350.5z M312.3,326.3c0.4,1.6,0.9,3.2,1.5,4.8&#10;&#9;&#9;c3.5,8.5,10.6,15,19.4,17.6l1.1,0.3c-1.7-11.1,0.3-26.4,1.7-34.8c0.4-2.3,0.7-4,0.9-5.1l0,0c-1.3,0.5-2.7,1-4,1.7&#10;&#9;&#9;c-4.1,2-8,4.2-11.8,6.7C317.5,319.7,314.5,322.7,312.3,326.3L312.3,326.3z"/>
	<path class="st0_beach-umbrella-23 targetColor" d="M362,342.8c-1.2,1.1-2.6,2.1-4,3c-6.8,4.2-14.9,5.7-22.8,4c-0.7-0.2-1.5-0.3-2.2-0.5&#10;&#9;&#9;c-0.7-6.3-0.8-12.6-0.4-18.9c0.5-5.6,1.5-11.1,3.1-16.5c0.6-2,1.3-4,2.1-6l0,0c0,0,0.4,0.3,1.1,0.9s2,1.7,3.4,3&#10;&#9;&#9;c3.8,3.6,9.2,9.2,12.9,15.4C358.2,332.1,360.4,337.3,362,342.8L362,342.8z" style="fill: rgb(104, 225, 253);"/>
	<path class="st1_beach-umbrella-23" d="M341.6,351.2c-2.2,0-4.4-0.2-6.6-0.7c-0.8-0.2-1.5-0.4-2.2-0.6c-0.3-0.1-0.5-0.3-0.5-0.6&#10;&#9;&#9;c-0.7-6.3-0.8-12.7-0.4-19c0.5-5.6,1.5-11.2,3.1-16.6c0.6-2,1.3-4,2.1-6c0-0.1,0.1-0.2,0.2-0.3c0.3-0.3,0.7-0.3,0.9-0.1&#10;&#9;&#9;c0,0,0.4,0.3,1.1,0.9c0.5,0.5,1.7,1.5,3.4,3c3.9,3.7,9.4,9.3,13,15.6c2.9,4.9,5.2,10.2,6.8,15.7c0.1,0.3,0,0.5-0.2,0.7&#10;&#9;&#9;c-1.3,1.1-2.7,2.2-4.1,3.1C353.3,349.5,347.5,351.2,341.6,351.2L341.6,351.2z M333.6,348.7c0.6,0.1,1.1,0.3,1.7,0.4&#10;&#9;&#9;c2.1,0.4,4.2,0.7,6.3,0.6c7.2,0,14.1-2.6,19.6-7.3c-1.6-5.2-3.8-10.2-6.5-14.9c-3.6-6.1-8.9-11.7-12.8-15.3c-1.6-1.5-2.8-2.5-3.3-3&#10;&#9;&#9;l-0.4-0.3c-0.4,1.1-1.1,2.8-1.7,5c-1.6,5.3-2.6,10.8-3.1,16.4C332.9,336.5,333,342.6,333.6,348.7L333.6,348.7z"/>
	<path class="st2_beach-umbrella-23" d="M340.4,289.1c-0.3,5-1,10-1.8,14.9c-0.4,2.4-0.7,4-0.7,4c-1.2-0.9-2.5-1.7-3.8-2.4c-4.9-2.7-10.1-4.7-15.6-5.9&#10;&#9;&#9;c0.3-0.4,0.7-0.8,1-1.1c4.7-4.9,10.9-8.1,17.6-9.1C338.1,289.3,339.3,289.1,340.4,289.1z"/>
	<path class="st1_beach-umbrella-23" d="M337.9,308.6c-0.1,0-0.3,0-0.4-0.1c-1.2-0.9-2.4-1.7-3.7-2.4c-4.8-2.7-10-4.7-15.4-5.9&#10;&#9;&#9;c-0.4-0.1-0.6-0.4-0.5-0.8c0-0.1,0.1-0.2,0.2-0.3c0.3-0.4,0.7-0.8,1.1-1.1c4.8-5,11.1-8.2,18-9.3c1.1-0.2,2.3-0.3,3.4-0.3&#10;&#9;&#9;c0.2,0,0.4,0.1,0.5,0.2c0.1,0.1,0.2,0.3,0.2,0.5c-0.3,5-1,10-1.8,15c-0.4,2.4-0.7,4-0.7,4c0,0.2-0.2,0.4-0.4,0.5&#10;&#9;&#9;C338.1,308.6,338,308.6,337.9,308.6L337.9,308.6z M319.8,299.2c5.1,1.2,10.1,3.1,14.6,5.7c1,0.6,2,1.2,3,1.8&#10;&#9;&#9;c0.1-0.7,0.3-1.7,0.5-2.9c0.7-4,1.5-9.5,1.8-14c-0.8,0-1.7,0.1-2.5,0.3c-6.6,1-12.6,4.1-17.2,8.9L319.8,299.2L319.8,299.2z"/>
	<circle class="st2_beach-umbrella-23" cx="337.9" cy="309.1" r="5.2"/>
	<path class="st1_beach-umbrella-23" d="M337.9,315.1c-3.3,0-5.9-2.7-5.9-6s2.7-5.9,6-5.9c3.3,0,5.9,2.7,5.9,6C343.8,312.4,341.1,315.1,337.9,315.1z&#10;&#9;&#9; M337.9,304.6c-2.5,0-4.6,2-4.6,4.5s2,4.6,4.5,4.6c2.5,0,4.6-2,4.6-4.5v0C342.4,306.6,340.4,304.6,337.9,304.6z"/>
	<path class="st2_beach-umbrella-23" d="M334.1,353.2c8-3.4,16.5-6.8,25.1-5.9c4.3,0.6,8.4,1.8,12.4,3.6"/>
	<path class="st1_beach-umbrella-23" d="M334.1,353.9c-0.3,0-0.5-0.2-0.6-0.4c-0.1-0.4,0-0.8,0.4-0.9c7.7-3.2,16.4-6.9,25.5-5.9&#10;&#9;&#9;c4.3,0.6,8.6,1.9,12.5,3.6c0.4,0.1,0.5,0.5,0.4,0.9c-0.1,0.4-0.6,0.5-0.9,0.4c0,0,0,0,0,0c-3.9-1.7-8-2.9-12.2-3.6&#10;&#9;&#9;c-8.7-0.9-17.2,2.7-24.8,5.8C334.3,353.9,334.2,353.9,334.1,353.9L334.1,353.9z"/>
</g>
</svg>