<svg version="1.1" id="Layer_1" xmlns="http://www.w3.org/2000/svg" xmlns:xlink="http://www.w3.org/1999/xlink" x="0px" y="0px" viewBox="0 0 500 500" style="width: 159px;" xml:space="preserve" data-imageid="boy-swimming-48" imageName="Boy Swimming" class="illustrations_image">
<style type="text/css">
	.st0_boy-swimming-48{fill:#68E1FD;}
	.st1_boy-swimming-48{fill:#231F20;}
	.st2_boy-swimming-48{fill:#FFFFFF;}
	.st3_boy-swimming-48{fill:#D1D3D4;}
	.st4_boy-swimming-48{fill:none;}
</style>
<g id="Water_boy-swimming-48">
	<rect x="20.9" y="83.5" class="st0_boy-swimming-48 targetColor" width="458.2" height="333" style="fill: rgb(104, 225, 253);"/>
	<path class="st1_boy-swimming-48" d="M479.1,417.2H20.9c-0.4,0-0.7-0.3-0.7-0.7l0,0v-333c0-0.4,0.3-0.7,0.7-0.7h458.2c0.4,0,0.7,0.3,0.7,0.7v0v333&#10;&#9;&#9;C479.8,416.9,479.5,417.2,479.1,417.2L479.1,417.2z M21.6,415.8h456.8V84.2H21.6V415.8z"/>
</g>
<g id="Shadow_boy-swimming-48">
	<path class="st1_boy-swimming-48" d="M348.8,416.5H291C223.4,370.6,57.8,258.2,61.5,253.8c4.6-5.5,80.9-62.9,80.9-62.9s303.7,123.6,306.2,138&#10;&#9;&#9;C450.3,339,386.8,388.1,348.8,416.5z"/>
	<path class="st1_boy-swimming-48" d="M348.8,417.2H291c-0.1,0-0.3,0-0.4-0.1C134.6,311.2,61.5,259.5,60.8,254.2c0-0.3,0-0.6,0.2-0.8&#10;&#9;&#9;c4.6-5.5,77.8-60.6,81-63c0.2-0.1,0.5-0.2,0.7-0.1c12.4,5.1,304.1,123.9,306.6,138.5c1.7,9.9-53.5,53.5-100,88.3&#10;&#9;&#9;C349.1,417.1,349,417.2,348.8,417.2L348.8,417.2z M291.3,415.8h57.3c64.3-48.1,100.5-79.7,99.3-86.8&#10;&#9;&#9;c-2-11.5-220.7-102.8-305.4-137.3c-5.3,4-74.7,56.3-80.3,62.4C63.9,258.2,105.6,290,291.3,415.8L291.3,415.8z"/>
	<path class="st1_boy-swimming-48" d="M115.1,409.8c0,2.3-0.5,4.6-1.5,6.7H42.8c-1-2.1-1.5-4.4-1.5-6.7c0-13.1,16.5-23.7,36.9-23.7&#10;&#9;&#9;S115.1,396.7,115.1,409.8L115.1,409.8z"/>
	<path class="st1_boy-swimming-48" d="M113.6,417.2H42.8c-0.3,0-0.5-0.2-0.6-0.4c-1-2.2-1.6-4.6-1.6-7c0-13.5,16.9-24.4,37.6-24.4s37.6,11,37.6,24.4&#10;&#9;&#9;c0,2.4-0.5,4.8-1.6,7C114.1,417,113.9,417.2,113.6,417.2L113.6,417.2z M43.3,415.8h69.9c0.8-1.9,1.2-3.9,1.2-6&#10;&#9;&#9;c0-12.7-16.2-23-36.2-23S42,397.1,42,409.8C42,411.9,42.4,413.9,43.3,415.8L43.3,415.8z"/>
</g>
<g id="Ball_boy-swimming-48">
	<path class="st2_boy-swimming-48" d="M152.1,316.1c0,11.1-4.8,21.8-13.1,29.1c-1.6,1.4-3.3,2.7-5.1,3.8c-8.6,5.4-18.9,7.2-28.8,5.1&#10;&#9;&#9;c-0.9-0.2-1.9-0.4-2.8-0.7c-11.4-3.4-20.7-11.7-25.2-22.8c-0.9-2.1-1.5-4.3-2-6.5c-2.5-12,0.7-24.4,8.8-33.7c0.4-0.5,0.9-1,1.3-1.4&#10;&#9;&#9;c6-6.2,13.8-10.2,22.3-11.5c1.4-0.2,2.8-0.3,4.2-0.4c0.5,0,1,0,1.5,0c13.3,0,25.7,6.7,32.8,17.9c0.5,0.9,1.1,1.7,1.5,2.6&#10;&#9;&#9;C150.6,303.3,152.2,309.7,152.1,316.1L152.1,316.1z"/>
	<path class="st1_boy-swimming-48" d="M113.2,355.7c-2.8,0-5.6-0.3-8.3-0.9c-1-0.2-1.9-0.4-2.8-0.7c-11.6-3.4-21.1-11.9-25.6-23.2&#10;&#9;&#9;c-0.9-2.1-1.5-4.4-2-6.6c-0.6-2.7-0.9-5.5-0.9-8.2c0-9.6,3.4-18.9,9.7-26.1c0.4-0.5,0.9-1,1.3-1.5c6.1-6.3,14-10.4,22.7-11.7&#10;&#9;&#9;c1.4-0.2,2.9-0.3,4.3-0.4c0.5,0,1,0,1.5,0c13.5,0,26.1,6.8,33.4,18.2c0.6,1,1.1,1.8,1.6,2.7c8.7,16.2,5.1,36.2-8.6,48.4&#10;&#9;&#9;c-1.6,1.4-3.4,2.8-5.2,3.9C128,353.6,120.7,355.7,113.2,355.7L113.2,355.7z M113.2,277.9c-0.5,0-1,0-1.5,0c-1.4,0-2.8,0.2-4.2,0.4&#10;&#9;&#9;c-8.3,1.3-16,5.2-21.9,11.3c-0.4,0.5-0.9,0.9-1.3,1.4c-6.1,7-9.4,15.9-9.4,25.2c0,2.7,0.3,5.3,0.8,7.9c0.5,2.2,1.1,4.3,2,6.4&#10;&#9;&#9;c4.4,10.8,13.5,19.1,24.7,22.4c0.9,0.3,1.8,0.5,2.7,0.7c2.6,0.6,5.3,0.8,8,0.8c7.2,0,14.2-2,20.3-5.9c1.8-1.1,3.4-2.4,5-3.8&#10;&#9;&#9;c13.3-11.8,16.7-31.1,8.3-46.7c-0.4-0.8-0.9-1.6-1.5-2.6C138.4,284.5,126.3,277.9,113.2,277.9L113.2,277.9z"/>
	<path class="st0_boy-swimming-48 targetColor" d="M108.5,301.1L108.5,301.1L108.5,301.1L108.5,301.1c-0.2,0.2-2.4,2.1-5.7,4.9c-6.8,6-18.3,16.5-25.7,24.7&#10;&#9;&#9;c-0.9-2.1-1.5-4.3-2-6.5c-2.5-12,0.7-24.4,8.8-33.7c0.4-0.5,0.9-1,1.3-1.4c6.8,1.5,13.3,4.4,19,8.4&#10;&#9;&#9;C105.7,298.6,107.1,299.8,108.5,301.1L108.5,301.1z" style="fill: rgb(104, 225, 253);"/>
	<path class="st1_boy-swimming-48" d="M77.1,331.4H77c-0.2,0-0.4-0.2-0.5-0.4c-0.9-2.1-1.5-4.4-2-6.6c-0.6-2.7-0.9-5.5-0.9-8.2&#10;&#9;&#9;c0-9.6,3.5-18.8,9.8-26.1c0.4-0.5,0.9-1,1.3-1.5c0.2-0.2,0.4-0.2,0.7-0.2c6.9,1.5,13.5,4.4,19.2,8.6c1.5,1.1,3,2.3,4.3,3.6&#10;&#9;&#9;c0.1,0.1,0.2,0.3,0.2,0.5c0,0.2,0,0.3-0.1,0.4c0,0.1-0.1,0.1-0.2,0.2c-0.4,0.3-2.5,2.1-5.6,4.9c-6.4,5.6-18.2,16.3-25.6,24.6&#10;&#9;&#9;C77.5,331.3,77.3,331.4,77.1,331.4L77.1,331.4z M85.4,289.9c-0.3,0.4-0.7,0.7-1,1.1c-6.1,7-9.4,15.9-9.4,25.1&#10;&#9;&#9;c0,2.7,0.3,5.3,0.8,7.9c0.4,1.8,0.9,3.6,1.6,5.4c7.5-8.2,18.8-18.4,25-23.9c2.4-2.1,4.2-3.7,5.1-4.5c-1.2-1.1-2.4-2.1-3.6-3&#10;&#9;&#9;C98.3,294.1,92.1,291.3,85.4,289.9L85.4,289.9z"/>
	<path class="st0_boy-swimming-48 targetColor" d="M147.5,297.7c-4.6-0.4-8.4,7.2-12.6,7.3c-8.1,0.3-11.4,0.6-16.1,1.5c-3.7,0.8-10.3-1.4-10.3-1.4l-0.4-9.1&#10;&#9;&#9;l-0.8-18.4c1.4-0.2,2.8-0.3,4.2-0.4c0.5,0,1,0,1.5,0c13.3,0,25.6,6.7,32.8,17.9C146.5,295.9,147.1,296.8,147.5,297.7L147.5,297.7z" style="fill: rgb(104, 225, 253);"/>
	<path class="st1_boy-swimming-48" d="M117.1,307.4c-3-0.1-5.9-0.7-8.7-1.6c-0.3-0.1-0.5-0.3-0.5-0.6l-1.2-27.5c0-0.4,0.2-0.7,0.6-0.7&#10;&#9;&#9;c1.4-0.2,2.9-0.4,4.3-0.4c0.5,0,1,0,1.5,0c13.5,0,26.1,6.8,33.4,18.2c0.6,1,1.1,1.8,1.6,2.7c0.1,0.2,0.1,0.5,0,0.7&#10;&#9;&#9;c-0.1,0.2-0.4,0.3-0.6,0.3c-2.1-0.2-4.2,1.7-6.2,3.6s-4,3.7-6.2,3.7c-7.9,0.3-11.3,0.6-15.9,1.5&#10;&#9;&#9;C118.4,307.4,117.7,307.4,117.1,307.4L117.1,307.4z M109.3,304.5c1.5,0.5,6.5,1.9,9.4,1.3c4.8-1,8.2-1.2,16.2-1.5&#10;&#9;&#9;c1.7-0.1,3.5-1.7,5.3-3.4s3.9-3.5,6.1-3.9c-0.3-0.5-0.6-1-1-1.6c-7.3-11.4-20.1-18.1-33.7-17.5c-1.2,0-2.4,0.1-3.5,0.3L109.3,304.5&#10;&#9;&#9;L109.3,304.5z"/>
	<path class="st2_boy-swimming-48" d="M152.1,316.1c0,11.1-4.8,21.8-13.1,29.1c-1.6,1.4-3.3,2.7-5.1,3.8l-22.5-40.5l-3.3-5.9l0,0l1.7-0.4&#10;&#9;&#9;c1.2-0.2,24.9-7.6,36.1-7.2c0.5,0.9,1.1,1.7,1.5,2.6C150.5,303.4,152.1,309.7,152.1,316.1L152.1,316.1z"/>
	<path class="st1_boy-swimming-48" d="M133.9,349.8c-0.1,0-0.1,0-0.2,0c-0.2,0-0.3-0.2-0.4-0.3L107.6,303c-0.1-0.1-0.1-0.2-0.1-0.3&#10;&#9;&#9;c0-0.4,0.3-0.7,0.7-0.7c0,0,0,0,0,0l1.6-0.3c0.2,0,0.7-0.2,1.5-0.4c16.5-4.7,28.2-7,34.7-6.8c0.2,0,0.4,0.1,0.6,0.3&#10;&#9;&#9;c0.6,1,1.1,1.8,1.6,2.6c8.7,16.2,5.1,36.2-8.6,48.4c-1.6,1.4-3.4,2.8-5.2,3.9C134.2,349.8,134.1,349.8,133.9,349.8L133.9,349.8z&#10;&#9;&#9; M109.2,303.1l25,45c1.5-1,3-2.1,4.4-3.4c13.3-11.8,16.7-31.1,8.3-46.7c-0.4-0.7-0.8-1.5-1.3-2.2h-0.5c-6.5,0-17.8,2.3-33.4,6.7&#10;&#9;&#9;L110,303L109.2,303.1L109.2,303.1z"/>
	<path class="st2_boy-swimming-48" d="M108.5,301.1L108.5,301.1c0,0.1-0.1,0.6-0.3,1.5l0,0c-0.3,1.4-0.7,3.6-1.2,6.5c-1.8,11-4.4,31.2-1.9,45.1&#10;&#9;&#9;c-0.9-0.2-1.9-0.4-2.8-0.7c-11.4-3.4-20.7-11.7-25.2-22.8c-0.9-2.1-1.5-4.3-2-6.5c2.9-4.8,6.9-8.9,11.7-11.9&#10;&#9;&#9;c4.8-3.2,9.9-6.1,15.1-8.6C104,302.6,106.2,301.8,108.5,301.1L108.5,301.1z"/>
	<path class="st1_boy-swimming-48" d="M105.1,354.9c0,0-0.1,0-0.2,0c-0.9-0.2-1.9-0.4-2.8-0.7c-11.6-3.4-21.1-12-25.6-23.2c-0.9-2.1-1.5-4.4-2-6.6&#10;&#9;&#9;c0-0.2,0-0.3,0.1-0.5c2.9-4.9,7-9.1,11.9-12.1c4.9-3.2,9.9-6.1,15.2-8.6c2.1-1.1,4.4-2,6.7-2.6c0.4-0.1,0.8,0.2,0.8,0.6&#10;&#9;&#9;c0,0,0,0.1,0,0.1l0,0c0,0.2-0.1,0.8-0.3,1.6c0,0,0,0.1,0,0.1c-0.3,1.4-0.7,3.6-1.1,6.4c-1.8,10.8-4.4,31-1.9,44.9&#10;&#9;&#9;c0,0.2,0,0.5-0.2,0.6C105.5,354.9,105.3,354.9,105.1,354.9L105.1,354.9z M75.9,324.3c0.5,2.1,1.1,4.1,1.9,6.1&#10;&#9;&#9;c4.4,10.8,13.5,19.1,24.7,22.4c0.6,0.2,1.2,0.3,1.7,0.5c-2.2-14,0.3-33.7,2.1-44.3c0.5-2.9,0.9-5.1,1.2-6.5c0,0,0-0.1,0-0.1&#10;&#9;&#9;l0.1-0.3c-1.8,0.6-3.6,1.4-5.3,2.2c-5.2,2.5-10.2,5.4-15,8.6C82.6,315.8,78.7,319.7,75.9,324.3L75.9,324.3z"/>
	<path class="st0_boy-swimming-48 targetColor" d="M139,345.2c-1.6,1.4-3.3,2.7-5.1,3.8c-8.6,5.4-18.9,7.2-28.8,5.1c-0.9-0.2-1.9-0.4-2.8-0.7&#10;&#9;&#9;c-0.8-7.9-1-15.9-0.5-23.9c0.6-7.1,1.9-14.1,4-20.9c0.8-2.6,1.6-5.1,2.7-7.6l0,0c0,0,0.5,0.4,1.4,1.2s2.5,2.1,4.3,3.8&#10;&#9;&#9;c4.8,4.5,11.7,11.7,16.4,19.5C134.1,331.8,137,338.4,139,345.2L139,345.2z" style="fill: rgb(104, 225, 253);"/>
	<path class="st1_boy-swimming-48" d="M113.2,355.7c-2.8,0-5.6-0.3-8.3-0.9c-1-0.2-1.9-0.4-2.8-0.7c-0.3-0.1-0.5-0.3-0.5-0.6c-0.8-8-1-16-0.5-24&#10;&#9;&#9;c0.6-7.1,1.9-14.2,4-21c0.8-2.6,1.6-5.1,2.7-7.6c0-0.1,0.1-0.2,0.2-0.3c0.3-0.3,0.7-0.3,1-0.1c0,0,0.5,0.4,1.4,1.2&#10;&#9;&#9;c0.7,0.6,2.2,1.9,4.3,3.8c5,4.6,11.8,11.8,16.5,19.7c3.7,6.2,6.6,12.9,8.6,19.8c0.1,0.3,0,0.5-0.2,0.7c-1.6,1.4-3.4,2.8-5.2,3.9&#10;&#9;&#9;C128.1,353.7,120.7,355.8,113.2,355.7L113.2,355.7z M103,353c0.8,0.2,1.5,0.4,2.3,0.6c2.6,0.6,5.3,0.8,8,0.8c7.2,0,14.2-2,20.3-5.9&#10;&#9;&#9;c1.6-1,3.2-2.2,4.7-3.5c-2-6.7-4.8-13.1-8.4-19.1c-4.5-7.8-11.3-14.8-16.2-19.4c-2.1-1.9-3.5-3.2-4.2-3.8l-0.7-0.6&#10;&#9;&#9;c-0.6,1.4-1.4,3.7-2.3,6.7c-2,6.8-3.3,13.7-3.9,20.8C102,337.5,102.2,345.3,103,353z"/>
	<path class="st2_boy-swimming-48" d="M111.7,277.2c-0.4,6.3-1.2,12.6-2.3,18.8c-0.5,3-0.9,5.1-0.9,5.1c-1.5-1.1-3.2-2.1-4.8-3.1&#10;&#9;&#9;c-6.2-3.5-12.9-6-19.8-7.5c0.4-0.5,0.9-1,1.3-1.4c6-6.2,13.8-10.2,22.3-11.5C108.9,277.4,110.3,277.2,111.7,277.2z"/>
	<path class="st1_boy-swimming-48" d="M108.5,301.8c-0.1,0-0.3,0-0.4-0.1c-1.5-1.1-3.1-2.1-4.7-3c-6.1-3.4-12.7-6-19.6-7.4c-0.2-0.1-0.4-0.2-0.5-0.5&#10;&#9;&#9;c-0.1-0.2,0-0.5,0.1-0.7c0.4-0.5,0.9-1,1.3-1.5c6.1-6.3,14-10.4,22.7-11.7c1.4-0.2,2.9-0.3,4.3-0.4c0.2,0,0.4,0.1,0.5,0.2&#10;&#9;&#9;c0.1,0.1,0.2,0.3,0.2,0.5c-0.4,6.3-1.2,12.7-2.3,18.9c-0.5,3-0.9,5.1-0.9,5.1c0,0.2-0.2,0.4-0.4,0.5&#10;&#9;&#9;C108.6,301.8,108.6,301.8,108.5,301.8L108.5,301.8z M85.2,290.1c6.6,1.5,12.9,4,18.8,7.3c1.4,0.8,2.7,1.6,4,2.5&#10;&#9;&#9;c0.2-0.9,0.4-2.3,0.7-4c0.9-5.1,1.9-12.3,2.3-18c-1.1,0.1-2.3,0.2-3.4,0.4c-8.3,1.3-16,5.2-21.9,11.3&#10;&#9;&#9;C85.5,289.7,85.4,289.9,85.2,290.1L85.2,290.1z"/>
	<circle class="st2_boy-swimming-48" cx="108.5" cy="302.6" r="6.6"/>
	<path class="st1_boy-swimming-48" d="M108.5,310c-4.1,0-7.3-3.3-7.3-7.4s3.3-7.4,7.3-7.4c4.1,0,7.3,3.3,7.3,7.4C115.8,306.7,112.5,310,108.5,310z&#10;&#9;&#9; M108.5,296.7c-3.3,0-5.9,2.7-5.9,6c0,3.3,2.7,5.9,6,5.9c3.3,0,5.9-2.7,5.9-5.9C114.4,299.4,111.8,296.7,108.5,296.7L108.5,296.7z"/>
</g>
<g id="Balloon_boy-swimming-48">
	<path class="st2_boy-swimming-48" d="M187.7,121.2c0,0-118.5,72.6-113.3,80.6s245.9,194.8,265.1,181.5c48.5-33.6,106.8-78.8,103.8-84.9&#10;&#9;&#9;S187.7,121.2,187.7,121.2z"/>
	<path class="st1_boy-swimming-48" d="M336.8,384.7c-1,0-1.9-0.1-2.9-0.3c-23.1-4.6-99.8-59.1-143.5-91.2c-59.7-43.9-114-87.1-116.5-90.9&#10;&#9;&#9;c-0.3-0.5-0.4-1-0.2-1.5c2.7-11.9,109.2-77.3,113.7-80.1c0.2-0.1,0.5-0.1,0.8,0c10.3,7,252.8,171.4,255.8,177.6&#10;&#9;&#9;c3.8,7.6-68.4,61.1-104,85.8C339,384.5,337.9,384.8,336.8,384.7L336.8,384.7z M187.7,122C149.4,145.6,77.1,192,75,201&#10;&#9;&#9;c-0.1,0.2-0.1,0.3,0,0.5c2.4,3.7,57.7,47.6,116.2,90.6c43.6,32.1,120.1,86.5,143,91c2.3,0.5,4,0.4,4.9-0.3&#10;&#9;&#9;c56.6-39.2,105.9-79.3,103.6-84C439.6,293.6,274.8,181,187.7,122L187.7,122z"/>
	<path class="st3_boy-swimming-48" d="M328.6,356.3c-0.2,0-0.5-0.1-0.6-0.3c-21.3-33.3-90.9-59.6-91.6-59.8c-0.1-0.1-0.2-0.1-0.3-0.3&#10;&#9;&#9;c-19.4-28.3-76.6-58.3-77.2-58.6c-0.1,0-0.2-0.1-0.2-0.2c-21.5-26.5-57.1-34.8-57.5-34.9c-0.4-0.1-0.6-0.5-0.5-0.8s0.5-0.6,0.8-0.5&#10;&#9;&#9;c0.4,0.1,36.4,8.4,58.2,35.2c3.1,1.6,58.2,30.9,77.5,58.8c4.2,1.6,71,27.6,92.1,60.3c0.2,0.3,0.1,0.8-0.2,1c0,0,0,0,0,0&#10;&#9;&#9;C328.9,356.3,328.7,356.4,328.6,356.3L328.6,356.3z"/>
	<path class="st3_boy-swimming-48" d="M408.9,306c-0.2,0-0.3-0.1-0.5-0.2c-0.6-0.6-63.1-56.6-88.2-68.3c-0.1,0-0.1-0.1-0.1-0.1&#10;&#9;&#9;c-0.6-0.5-59.8-47.7-77.7-57.5l-0.1-0.1c-0.3-0.3-28.4-27.2-45.7-36c-0.4-0.1-0.5-0.6-0.4-0.9c0.1-0.4,0.6-0.5,0.9-0.4&#10;&#9;&#9;c0,0,0.1,0,0.1,0.1c17,8.7,44.4,34.7,45.9,36.1c17.9,9.8,75.5,55.7,77.7,57.5c25.4,11.8,87.9,67.9,88.5,68.5c0.3,0.3,0.3,0.7,0.1,1&#10;&#9;&#9;c0,0,0,0,0,0C409.3,305.9,409.1,306,408.9,306L408.9,306z"/>
	<path class="st3_boy-swimming-48" d="M384.2,317.6c-0.2,0-0.3-0.1-0.5-0.2c-0.6-0.5-60.1-51.9-94.8-62.9c-0.1,0-0.2-0.1-0.3-0.1&#10;&#9;&#9;c-0.4-0.4-40.8-37-63.5-46.4c-0.1,0-0.2-0.1-0.2-0.2c-0.3-0.3-30.4-33.3-59.3-50.3c-0.3-0.2-0.4-0.6-0.2-1s0.6-0.4,1-0.2&#10;&#9;&#9;c28.2,16.6,57.5,48.3,59.5,50.4c22.3,9.4,61.3,44.3,63.7,46.5c35,11.2,94.6,62.6,95.2,63.2c0.3,0.3,0.3,0.7,0.1,1&#10;&#9;&#9;C384.6,317.5,384.4,317.6,384.2,317.6L384.2,317.6z"/>
	<path class="st3_boy-swimming-48" d="M357.9,339.3c-0.2,0-0.4-0.1-0.5-0.2c-0.5-0.5-48.2-47.6-83.5-56.9c-0.1,0-0.3-0.1-0.4-0.2&#10;&#9;&#9;c-7.4-8.5-15.4-16.5-23.8-23.9c-13-11.6-32.7-26.7-52.5-32.9c-0.1,0-0.3-0.1-0.3-0.2c-0.3-0.4-32.7-41.7-59.3-47.4&#10;&#9;&#9;c-0.4-0.1-0.6-0.5-0.5-0.8c0,0,0,0,0,0c0.1-0.4,0.5-0.6,0.8-0.5c26.5,5.6,57.4,44.4,60,47.7c20,6.3,39.7,21.5,52.8,33.2&#10;&#9;&#9;c8.4,7.5,16.4,15.4,23.8,23.9c18.6,5,40.4,20.2,55.5,32.1c16.3,13,28.4,24.9,28.5,25c0.3,0.3,0.3,0.7,0,1&#10;&#9;&#9;C358.3,339.2,358.1,339.3,357.9,339.3L357.9,339.3z"/>
	<path class="st3_boy-swimming-48" d="M89.7,208c-0.2,0-0.4-0.1-0.5-0.2c-0.3-0.3-0.2-0.7,0-1c0,0,0,0,0,0c0.6-0.5,55.8-49.1,105.4-71.9&#10;&#9;&#9;c0.4-0.2,0.8,0,0.9,0.3c0.2,0.4,0,0.8-0.3,0.9c-49.5,22.7-104.6,71.2-105.1,71.7C90.1,207.9,89.9,208,89.7,208L89.7,208z"/>
	<path class="st3_boy-swimming-48" d="M339.8,372.6c-0.2,0-0.4-0.1-0.5-0.2c-0.3-0.3-0.3-0.7,0-1c0,0,0,0,0,0c0.5-0.5,52.1-46.6,96.6-70.8&#10;&#9;&#9;c0.3-0.2,0.8-0.1,1,0.3s0.1,0.8-0.3,1c-44.3,24.2-95.8,70.2-96.3,70.6C340.1,372.6,339.9,372.7,339.8,372.6z"/>
</g>
<g id="Wave_boy-swimming-48">
	<path class="st0_boy-swimming-48 targetColor" d="M78.9,354.5c4.6,0,9-1.1,13-3.4c0.5-0.4,1.1-0.6,1.8-0.7c0.7,0.1,1.4,0.3,2,0.6c4,1.7,8.5,0.9,11.8-1.9&#10;&#9;&#9;c0.4,3.4,1.3,6.8,2.6,9.9c1.4,3.1,3.9,5.9,7.2,7c3.6,1.1,7.5,0,10.8-1.7c2.4,7,9.2,11.5,16.6,11" style="fill: rgb(104, 225, 253);"/>
	<path class="st2_boy-swimming-48" d="M143.3,376.1c-6.9-0.1-13.1-4.4-15.7-10.8c-3.9,1.9-7.6,2.3-10.6,1.4c-3.4-1.3-6.2-3.9-7.6-7.3&#10;&#9;&#9;c-1.2-2.9-2-5.9-2.4-8.9c-3.4,2.4-7.7,2.9-11.5,1.3l-0.3-0.1c-0.4-0.2-0.9-0.4-1.4-0.4c-0.5,0.1-1,0.3-1.4,0.6&#10;&#9;&#9;c-4.1,2.4-8.7,3.6-13.5,3.5c-0.4,0-0.7-0.3-0.7-0.7c0,0,0,0,0,0c0-0.4,0.3-0.7,0.6-0.7c0,0,0.1,0,0.1,0c4.4,0,8.8-1.1,12.7-3.3&#10;&#9;&#9;c0.6-0.4,1.3-0.7,2.1-0.8c0.7,0,1.4,0.2,2,0.5l0.3,0.1c3.7,1.6,8,0.9,11-1.8c0.2-0.2,0.5-0.2,0.7-0.1c0.2,0.1,0.4,0.3,0.5,0.5&#10;&#9;&#9;c0.4,3.4,1.2,6.6,2.5,9.8c1.3,3,3.7,5.4,6.8,6.6c3.6,1.1,7.6-0.3,10.2-1.6c0.3-0.2,0.8,0,1,0.3c0,0,0,0.1,0,0.1&#10;&#9;&#9;c2.3,6.7,8.8,11,15.8,10.5c0.4,0,0.7,0.2,0.8,0.6c0,0.4-0.2,0.7-0.6,0.8C144.1,376,143.7,376.1,143.3,376.1L143.3,376.1z"/>
	<path class="st2_boy-swimming-48" d="M465.3,393.5c-6.2-0.2-11.6-4.5-13.1-10.5c-9.8,2.9-21.5-1.4-26.9-10.1c-0.2-0.3-0.2-0.8,0.2-1&#10;&#9;&#9;c0.3-0.2,0.8-0.2,1,0.2c0,0,0,0.1,0.1,0.1c5.2,8.4,16.7,12.5,26,9.3c0.2-0.1,0.4,0,0.6,0.1c0.2,0.1,0.3,0.3,0.3,0.5&#10;&#9;&#9;c1.1,6,6.5,10.3,12.7,10c0.4,0,0.7,0.3,0.8,0.6c0,0.4-0.2,0.7-0.6,0.8c0,0,0,0,0,0C465.9,393.5,465.6,393.5,465.3,393.5&#10;&#9;&#9;L465.3,393.5z"/>
	<path class="st2_boy-swimming-48" d="M75.2,234.1L75.2,234.1c-3.6-0.5-7.6-1.1-11-3c-2.8-1.6-5.9-4.6-6.3-8.5c-10.4,2.1-21-2.1-27.1-10.8&#10;&#9;&#9;c-0.2-0.3-0.1-0.8,0.2-1c0.3-0.2,0.7-0.1,0.9,0.2c5.9,8.4,16.4,12.4,26.5,10c0.2-0.1,0.4,0,0.6,0.1c0.2,0.1,0.3,0.3,0.3,0.6&#10;&#9;&#9;c0,3.1,2.2,6.3,5.6,8.2c3.2,1.8,6.9,2.3,10.5,2.9c0.4,0,0.7,0.4,0.6,0.8C75.9,233.9,75.6,234.2,75.2,234.1L75.2,234.1L75.2,234.1z"/>
	<path class="st2_boy-swimming-48" d="M228.7,392c-3.1,0-6.2-0.5-9.1-1.5c-5.7-2-10.2-6.4-12-11.5c-4.2,0.6-8.6,1.1-12.9,0.4&#10;&#9;&#9;c-5.1-0.9-9.3-3.7-11.2-7.5c-0.2-0.3,0-0.8,0.3-0.9s0.8,0,0.9,0.3l0,0c1.7,3.4,5.6,5.9,10.2,6.7c4.3,0.8,8.8,0.1,13.1-0.5&#10;&#9;&#9;c0.3,0,0.7,0.2,0.8,0.5c1.5,4.9,5.8,9.2,11.3,11.1c4.7,1.7,10.4,1.9,16.5,0.5c0.4-0.1,0.8,0.2,0.8,0.5s-0.2,0.8-0.5,0.8&#10;&#9;&#9;C234.2,391.7,231.5,392,228.7,392L228.7,392z"/>
	<path class="st2_boy-swimming-48" d="M305.8,128.8c-2.7,0-5.2-1.6-7.7-3.2c-1.6-1.2-3.4-2.1-5.3-2.8c-2.1-0.5-4.2-0.6-6.3-0.5&#10;&#9;&#9;c-2.1,0.2-4.2,0-6.2-0.4c-4.4-1.1-7.6-4.5-10.8-7.9c-3.4-3.6-6.6-7.1-11.1-7.5c-2-0.1-4.1,0.2-6,0.8c-1.1,0.3-2.2,0.5-3.3,0.7&#10;&#9;&#9;c-8.6,1.1-17-3.5-20.7-11.4c-0.2-0.3,0-0.8,0.3-0.9c0.3-0.2,0.8,0,0.9,0.3c0,0,0,0.1,0,0.1c3.4,7.3,11.2,11.6,19.2,10.6&#10;&#9;&#9;c1.1-0.2,2.1-0.4,3.2-0.7c2.1-0.6,4.3-0.9,6.5-0.8c5,0.4,8.6,4.2,12,7.9c3,3.2,6.1,6.5,10.1,7.5c1.9,0.4,3.9,0.5,5.9,0.3&#10;&#9;&#9;c2.3-0.2,4.5,0,6.8,0.5c2,0.7,3.9,1.7,5.7,2.9c2.9,1.8,5.6,3.6,8.5,2.7c0.4-0.1,0.8,0.1,0.9,0.4c0.1,0.4-0.1,0.8-0.4,0.9&#10;&#9;&#9;c0,0,0,0-0.1,0C307.2,128.7,306.5,128.8,305.8,128.8L305.8,128.8z"/>
	<path class="st2_boy-swimming-48" d="M450.1,165.1c-3.1,0.1-6.1-0.8-8.6-2.6c-2.4-1.8-3.8-4.7-3.7-7.7c-5.5,0.7-11.2,1.2-16.5-0.5&#10;&#9;&#9;s-10.9-6.1-11.5-12.6v-0.3c-0.1-0.8-0.1-1.7-0.6-2.1c-0.7-0.3-1.4-0.4-2.1-0.2c-7.3,1.1-13.5,0.7-18.8-1.2&#10;&#9;&#9;c-6.5-2.3-11.7-7-13.8-12.6c-0.1-0.4,0.1-0.8,0.5-0.9c0.3-0.1,0.7,0.1,0.8,0.4c2,5.2,6.9,9.6,13,11.8c5.1,1.8,11.1,2.1,18.2,1.1&#10;&#9;&#9;c1.6-0.7,3.5,0.1,4.2,1.7c0.2,0.6,0.3,1.2,0.2,1.8v0.3c0.5,5.7,5.8,9.9,10.5,11.3c5.3,1.6,11,1.1,16.8,0.3c0.2,0,0.5,0.1,0.6,0.2&#10;&#9;&#9;c0.2,0.2,0.2,0.4,0.2,0.6c-0.4,2.8,0.7,5.6,3,7.2c2.4,1.6,5.2,2.5,8.1,2.3c0.4,0,0.7,0.3,0.7,0.6c0,0,0,0,0,0&#10;&#9;&#9;c0,0.4-0.3,0.7-0.7,0.7c0,0,0,0,0,0L450.1,165.1L450.1,165.1z"/>
	<path class="st2_boy-swimming-48" d="M54.7,306.3c-2.8-0.1-5.3-1.5-6.9-3.8c-2-2.7-2.7-6.1-3-8.9c0-0.8-0.3-1.5-0.8-2.1c-0.6-0.3-1.3-0.4-2-0.4&#10;&#9;&#9;h-0.4c-5.3,0-10.2-2.5-13.5-6.6c-0.3-0.3-0.2-0.7,0-1c0.3-0.3,0.7-0.2,1,0c0,0,0,0.1,0.1,0.1c3,3.8,7.6,6,12.4,6H42&#10;&#9;&#9;c1-0.1,2,0.1,2.9,0.6c0.8,0.8,1.3,1.9,1.3,3c0.3,2.5,0.9,5.7,2.8,8.2s4.7,3.7,7.2,3.1c0.4-0.1,0.8,0.1,0.8,0.5&#10;&#9;&#9;c0.1,0.4-0.1,0.8-0.5,0.9C55.9,306.2,55.3,306.3,54.7,306.3L54.7,306.3z"/>
	<path class="st2_boy-swimming-48" d="M109.1,132.5L109.1,132.5c-5.3-0.7-9.4-2.2-12.6-4.5c-3.6-2.5-5.8-6.4-6.2-10.7c-13.8,2.9-28.2-2.1-37.2-13&#10;&#9;&#9;c-0.2-0.3-0.1-0.8,0.2-1c0.3-0.2,0.7-0.1,0.9,0.1c8.9,10.7,23,15.5,36.6,12.3c0.2-0.1,0.4,0,0.6,0.1c0.2,0.1,0.3,0.3,0.3,0.6&#10;&#9;&#9;c-0.1,3.8,2.1,7.8,5.7,10.4c3,2.2,6.8,3.5,11.8,4.2c0.4,0,0.7,0.4,0.7,0.7S109.5,132.5,109.1,132.5L109.1,132.5L109.1,132.5z"/>
	<path class="st2_boy-swimming-48" d="M449.8,246.9c-4.1-0.1-8-1.7-10.9-4.6c-3.4-3.1-5.2-7.4-5.1-12v-0.2c0.1-0.4,0-0.8-0.1-1.2&#10;&#9;&#9;c-0.4-1-2.2-1-3.6-0.8c-7.7,0.7-15.2-2.4-20.2-8.3c-0.3-0.3-0.3-0.7,0-1s0.7-0.3,1,0c0,0,0.1,0.1,0.1,0.1c4.7,5.6,11.8,8.5,19,7.8&#10;&#9;&#9;c1.3-0.1,4.2-0.5,5.1,1.7c0.2,0.6,0.3,1.2,0.2,1.9v0.2c0,8.3,6.7,15,15,15c0.3,0,0.5,0,0.8,0c0.4-0.1,0.7,0.2,0.8,0.6&#10;&#9;&#9;c0.1,0.4-0.2,0.7-0.6,0.8c0,0,0,0-0.1,0C450.8,246.9,450.3,246.9,449.8,246.9L449.8,246.9z"/>
</g>
<g id="Character_boy-swimming-48">
	<path class="st2_boy-swimming-48" d="M289.1,195.2c0,0,11.9-30.2,16.9-32.8c1.6-0.8,4.3-0.1,5.9,0c4,0.4,7.9,1.1,11.9,1.8&#10;&#9;&#9;c18.7,3.3,36.7,11.1,55.1,15.9c2.6,0.7,6.1,2,8.9,1.6c3.8-0.6,7.9-4.9,11.1-7c4.3-2.6,8.7-5,13.2-7.2c7.2-3.4,5.4,5.9,3.1,9.4&#10;&#9;&#9;c-5.5,8.7-11.1,17.2-16.9,25.6c-3.2,4.7-6.1,7.9-12.1,7c-4.8-0.7-8.9-3.7-12.8-6.5c-7-5.2-48.4-12.6-48.4-12.6l-6.3,12.8"/>
	<path class="st1_boy-swimming-48" d="M388,210.5c-0.7,0-1.3-0.1-2-0.1c-5.1-0.7-9.4-3.9-13.1-6.6c-6.4-4.7-42.8-11.5-47.5-12.4l-6,12.4&#10;&#9;&#9;c-0.2,0.3-0.6,0.5-0.9,0.3s-0.5-0.6-0.3-0.9l6.3-12.8c0.1-0.3,0.4-0.4,0.8-0.4c1.7,0.3,41.6,7.5,48.6,12.7&#10;&#9;&#9;c3.6,2.7,7.7,5.7,12.5,6.4c5.7,0.8,8.5-2.4,11.4-6.8c5.8-8.4,11.5-17,16.9-25.6c1.5-2.3,2.6-7.1,1.3-8.6c-0.8-0.9-2.3-0.4-3.5,0.2&#10;&#9;&#9;c-4.5,2.2-8.9,4.6-13.1,7.2c-1.1,0.8-2.2,1.6-3.3,2.4c-2.5,2-5.4,4.2-8.1,4.6c-2.4,0.4-5-0.4-7.4-1.1l-1.8-0.5&#10;&#9;&#9;c-7.3-1.9-14.6-4.3-21.8-6.6c-10.8-3.6-22-7.2-33.2-9.2c-3.8-0.7-7.8-1.4-11.8-1.8l-1.2-0.1c-1.5-0.2-3.3-0.5-4.4,0&#10;&#9;&#9;c-3.9,2-13.3,24-16.5,32.4c-0.1,0.4-0.5,0.5-0.9,0.4c-0.4-0.1-0.5-0.5-0.4-0.9l0,0c1.2-3.1,12.1-30.6,17.2-33.1&#10;&#9;&#9;c1.5-0.7,3.5-0.4,5.2-0.2c0.4,0.1,0.8,0.1,1.1,0.1c4.1,0.4,8,1.1,11.9,1.8c11.3,2,22.6,5.7,33.5,9.2c7.1,2.3,14.4,4.7,21.7,6.6&#10;&#9;&#9;c0.6,0.1,1.2,0.3,1.8,0.5c2.2,0.7,4.7,1.4,6.7,1.1c2.4-0.4,5.1-2.5,7.5-4.4c1.2-0.9,2.3-1.8,3.4-2.5c4.3-2.7,8.7-5.1,13.2-7.3&#10;&#9;&#9;c2.9-1.4,4.4-0.7,5.2,0.1c2.1,2.3,0.4,8-1.1,10.3c-5.4,8.6-11.1,17.3-16.9,25.7C396,207,393.2,210.4,388,210.5L388,210.5z"/>
	<path class="st2_boy-swimming-48" d="M197.4,190.2l-16.1,6.4l-27.7-8.4l15.5-10.4l-7.8-13.5c0,0-36.1,4.6-47.3,16c-19.6,19.9-5.2,39.1,60.6,44.5&#10;&#9;&#9;c0,0,27.8,33.7,60.2,53.6c0,0,28.8-27.4,41.4-52.8l-26.7-32.2c0,0,14-46-8.5-64.9c-6.6-5.6-46.3,19.7-46.3,19.7l9.6,8.6l15.3-3.2&#10;&#9;&#9;V169C219.7,169,202.8,179.5,197.4,190.2L197.4,190.2z"/>
	<path class="st1_boy-swimming-48" d="M234.9,279.2c-0.1,0-0.3,0-0.4-0.1c-30.7-18.9-57.6-50.6-60.2-53.6c-39.9-3.3-63.5-11.9-68.2-24.7&#10;&#9;&#9;c-2.4-6.4,0.2-13.6,7.4-21c11.2-11.4,46.2-16,47.7-16.2c0.3,0,0.6,0.1,0.7,0.3l7.8,13.5c0.2,0.3,0.1,0.7-0.2,0.9l-14.3,9.6l26,7.9&#10;&#9;&#9;l15.6-6.2c5.2-10,19.7-19.5,22.2-21v-14l-14.4,3c-0.2,0-0.4,0-0.6-0.2l-9.6-8.6c-0.2-0.1-0.2-0.4-0.2-0.6c0-0.2,0.1-0.4,0.3-0.5&#10;&#9;&#9;c4.1-2.6,40.4-25.4,47.2-19.7c9.4,7.9,13.9,21.8,12.9,40.1c-0.5,8.5-1.8,17-4.1,25.2l26.4,31.9c0.2,0.2,0.2,0.5,0.1,0.8&#10;&#9;&#9;c-12.5,25.2-41.2,52.8-41.5,53C235.3,279.2,235.1,279.3,234.9,279.2L234.9,279.2z M161,165.2c-4.2,0.6-36.2,5.3-46.4,15.7&#10;&#9;&#9;c-6.8,6.9-9.3,13.7-7.1,19.5c4.5,12.1,28.4,20.6,67.3,23.8c0.2,0,0.4,0.1,0.5,0.2c0.3,0.3,27.9,33.5,59.5,53.2&#10;&#9;&#9;c3.5-3.4,29-28.6,40.6-51.9l-26.4-31.9c-0.2-0.2-0.2-0.4-0.1-0.6c0.1-0.5,13.6-45.8-8.3-64.2c-4.5-3.8-28.9,9.3-44.7,19.3l8.7,7.8&#10;&#9;&#9;l15-3.1c0.2,0,0.4,0,0.6,0.1c0.2,0.1,0.3,0.3,0.3,0.5V169c0,0.2-0.1,0.5-0.3,0.6c-0.2,0.1-16.8,10.4-22.1,20.9&#10;&#9;&#9;c-0.1,0.1-0.2,0.3-0.4,0.3l-16.1,6.4c-0.1,0.1-0.3,0.1-0.5,0l-27.7-8.3c-0.4-0.1-0.6-0.5-0.5-0.9c0-0.2,0.1-0.3,0.3-0.4l15-10&#10;&#9;&#9;L161,165.2L161,165.2z M197.4,190.2L197.4,190.2z"/>
	<path class="st2_boy-swimming-48" d="M159.4,159.9c0.7-2.6,1.6-5.2,2.8-7.6c1.7-4.1,5.1-7.2,9.4-8.4c2.1-0.6,4.3-0.6,6.4-1.2s4.1-2,4.7-4&#10;&#9;&#9;s-1.2-4.7-3.3-4.3c5.1-1.4,10.9-1.3,15.6,1.2c3.4,1.8,5.9,4.9,7.1,8.6c0.6,1.9,0.1,3.3,0.2,5.1c0.1,2.3,0.9,4.6,1.2,6.9&#10;&#9;&#9;c0.4,3.4-0.6,5.6-1.8,8.7c-2,5.4-4.7,10.6-8.9,14.5c-5.4,4.9-14.5,7.8-20.8,3.1c-6.2-4.6-10.6-11.2-12.5-18.7&#10;&#9;&#9;C159.2,162.6,159.2,161.2,159.4,159.9L159.4,159.9z"/>
	<path class="st1_boy-swimming-48" d="M179.4,185.6c-2.8,0.1-5.6-0.8-7.8-2.5c-6.3-4.7-10.9-11.4-12.8-19.1c-0.3-1.4-0.3-2.9,0-4.3l0,0&#10;&#9;&#9;c0.5-2.1,1.2-4.2,2.1-6.1c0.2-0.6,0.5-1.1,0.7-1.6c1.7-4.3,5.4-7.5,9.8-8.8c1-0.2,2.1-0.4,3.1-0.6c1.1-0.1,2.2-0.3,3.3-0.6&#10;&#9;&#9;c2.2-0.6,3.8-2,4.2-3.6c0.2-1-0.1-2-0.7-2.8c-0.4-0.5-1.1-0.8-1.8-0.7c-0.4,0.1-0.7-0.2-0.8-0.5c-0.1-0.4,0.1-0.7,0.5-0.8&#10;&#9;&#9;c5.8-1.6,11.6-1.2,16.1,1.3c3.5,1.9,6.2,5.2,7.4,9c0.3,1.2,0.4,2.5,0.3,3.7c0,0.5-0.1,1-0.1,1.6c0.1,1.3,0.3,2.6,0.6,3.8&#10;&#9;&#9;c0.2,1,0.4,2,0.6,3c0.4,3.2-0.4,5.3-1.4,8.1l-0.4,1c-2.4,6.5-5.4,11.4-9.1,14.8C189.5,183.3,184.6,185.3,179.4,185.6L179.4,185.6z&#10;&#9;&#9; M160.1,160c-0.3,1.2-0.3,2.4,0,3.6c1.9,7.3,6.2,13.8,12.3,18.4c5.9,4.4,14.6,1.7,19.9-3.1c3.6-3.3,6.5-7.9,8.8-14.2l0.4-1&#10;&#9;&#9;c1-2.6,1.7-4.6,1.4-7.4c-0.1-1-0.3-1.9-0.6-2.9c-0.4-1.3-0.6-2.7-0.6-4.1c0-0.6,0-1.2,0-1.8c0.1-1.1,0.1-2.2-0.2-3.2&#10;&#9;&#9;c-1.1-3.5-3.5-6.4-6.7-8.2c-3.9-2-8.3-2.6-12.6-1.7c0.1,0.1,0.2,0.2,0.3,0.3c1,1.1,1.4,2.6,1.1,4.1c-0.6,2.1-2.5,3.7-5.2,4.5&#10;&#9;&#9;c-1.1,0.3-2.3,0.5-3.4,0.7c-1,0.1-2,0.3-2.9,0.5c-4,1.2-7.3,4.1-8.9,8c-0.2,0.5-0.5,1.1-0.7,1.7C161.3,156.1,160.6,158.1,160.1,160&#10;&#9;&#9;L160.1,160z"/>
	<path class="st2_boy-swimming-48" d="M195.6,198.7l-16.7-17c0,0,3.7-8-8.2-20.1c9-2.2,17.3-6.8,24-13.3c0,0,14.8,11.8,18.6,19s-2.7,13.1-2.7,13.1&#10;&#9;&#9;l7.8,8.5"/>
	<path class="st1_boy-swimming-48" d="M195.6,199.4c-0.2,0-0.4-0.1-0.5-0.2l-16.7-17c-0.2-0.2-0.3-0.5-0.1-0.8c0-0.1,3.3-7.7-8.1-19.3&#10;&#9;&#9;c-0.2-0.2-0.2-0.5-0.2-0.7c0.1-0.2,0.3-0.4,0.5-0.5c8.9-2.2,17.1-6.7,23.7-13.1c0.3-0.2,0.7-0.2,0.9,0c0.6,0.5,14.9,11.9,18.8,19.2&#10;&#9;&#9;c3.4,6.4-0.8,11.8-2.3,13.4l7.4,8c0.2,0.3,0.1,0.8-0.2,1c-0.2,0.2-0.6,0.2-0.8,0l-7.8-8.5c-0.1-0.1-0.2-0.3-0.2-0.5&#10;&#9;&#9;c0-0.2,0.1-0.4,0.2-0.5c0.2-0.2,6.1-5.6,2.5-12.2c-3.4-6.3-15.4-16.3-17.9-18.4c-6.4,6.1-14.2,10.4-22.7,12.7&#10;&#9;&#9;c9.7,10.3,8.3,17.6,7.6,19.5l16.4,16.7c0.3,0.3,0.3,0.7,0,1c0,0,0,0,0,0C196,199.3,195.8,199.4,195.6,199.4L195.6,199.4z"/>
	<path class="st1_boy-swimming-48" d="M217.3,187.6c0,0-3.8,2.8-10.2,2s-8.3-4-8.3-4s7.2,0,11.9-5.2L217.3,187.6z"/>
	<path class="st1_boy-swimming-48" d="M209.4,190.4c-0.8,0-1.6-0.1-2.4-0.1c-6.6-0.8-8.7-4.2-8.8-4.3c-0.1-0.2-0.1-0.5,0-0.7&#10;&#9;&#9;c0.1-0.2,0.4-0.4,0.6-0.4c0.1,0,6.9-0.1,11.3-5c0.1-0.1,0.3-0.2,0.5-0.2c0.2,0,0.4,0.1,0.5,0.2l6.6,7.2c0.1,0.1,0.2,0.3,0.2,0.5&#10;&#9;&#9;c0,0.2-0.1,0.4-0.3,0.5C215.3,189.7,212.4,190.5,209.4,190.4L209.4,190.4z M200.3,186.2c2,1.6,4.4,2.5,6.9,2.7&#10;&#9;&#9;c3.1,0.4,6.2-0.1,9-1.5l-5.6-6C207.9,184.1,204.2,185.8,200.3,186.2L200.3,186.2z"/>
	<path class="st2_boy-swimming-48" d="M192.3,162.3c0,0,9.4,2.9,9.3,4.9s-3.6,3.5-3.6,3.5"/>
	<path class="st1_boy-swimming-48" d="M198,171.3c-0.3,0-0.5-0.2-0.6-0.4c-0.2-0.4,0-0.8,0.4-0.9c1.2-0.5,3.1-1.8,3.1-2.9c-0.1-0.8-4.3-2.7-8.8-4.1&#10;&#9;&#9;c-0.4-0.1-0.6-0.5-0.5-0.9c0.1-0.4,0.5-0.6,0.9-0.5c3.7,1.2,9.9,3.4,9.8,5.6s-3.6,3.9-4,4.1C198.2,171.3,198.1,171.3,198,171.3&#10;&#9;&#9;L198,171.3z"/>
	<path class="st1_boy-swimming-48" d="M197.4,178.6c-0.3,0-0.6-0.2-0.7-0.5c-0.1-0.4,0.1-0.8,0.5-0.9c0.4-0.1,8.7-2.5,9.7-11.6&#10;&#9;&#9;c0-0.4,0.4-0.7,0.7-0.6c0,0,0,0,0,0c0.4,0,0.7,0.4,0.6,0.8c-1.1,10-10.6,12.7-10.7,12.8C197.6,178.6,197.5,178.6,197.4,178.6&#10;&#9;&#9;L197.4,178.6z"/>
	<path class="st1_boy-swimming-48" d="M190.1,161.3l-10.8,7.8c0,0,4.7,6.6,10.3,2.2C193,168.7,192.5,164.8,190.1,161.3L190.1,161.3z"/>
	<path class="st1_boy-swimming-48" d="M185.6,173.6c-0.3,0-0.6,0-0.9-0.1c-3.5-0.5-5.9-3.8-6-4c-0.2-0.3-0.2-0.7,0.1-1c0,0,0,0,0,0l10.8-7.8&#10;&#9;&#9;c0.3-0.2,0.7-0.2,1,0.1c0,0,0,0,0,0c3,4.2,2.8,8.3-0.6,10.9C188.8,172.8,187.2,173.4,185.6,173.6L185.6,173.6z M180.3,169.3&#10;&#9;&#9;c1.2,1.4,2.8,2.4,4.6,2.8c1.6,0.2,3.1-0.3,4.3-1.4c3.5-2.7,1.9-6.5,0.7-8.4L180.3,169.3L180.3,169.3z"/>
	<path class="st1_boy-swimming-48" d="M203.3,151.1l-10.8,7.8c0,0,4.7,6.6,10.3,2.2C206.2,158.4,205.7,154.5,203.3,151.1L203.3,151.1z"/>
	<path class="st1_boy-swimming-48" d="M198.8,163.3c-0.3,0-0.6,0-0.9-0.1c-3.5-0.5-5.9-3.8-6-3.9c-0.2-0.3-0.2-0.7,0.1-1c0,0,0,0,0,0l10.8-7.8&#10;&#9;&#9;c0.3-0.2,0.7-0.2,1,0.1c0,0,0,0,0,0c3,4.2,2.8,8.3-0.6,10.9C202,162.6,200.4,163.2,198.8,163.3L198.8,163.3z M193.5,159&#10;&#9;&#9;c1.2,1.4,2.8,2.4,4.6,2.8c1.6,0.2,3.1-0.3,4.3-1.4c3.5-2.7,1.9-6.5,0.7-8.4L193.5,159z"/>
	<path class="st1_boy-swimming-48" d="M190.1,162c-0.4,0-0.7-0.3-0.7-0.7c0-0.2,0.1-0.3,0.2-0.5c0.8-0.8,1.8-1.3,2.9-1.6c0.4-0.1,0.8,0.1,0.9,0.4&#10;&#9;&#9;s-0.1,0.8-0.4,0.9c0,0,0,0-0.1,0c-0.8,0.2-1.6,0.6-2.3,1.2C190.4,161.9,190.2,162,190.1,162L190.1,162z"/>
	<line class="st4_boy-swimming-48" x1="180.4" y1="169.8" x2="175.6" y2="179.3"/>
	<path class="st1_boy-swimming-48" d="M175.6,180c-0.1,0-0.2,0-0.3-0.1c-0.3-0.2-0.5-0.6-0.3-0.9l4.9-9.5c0.2-0.3,0.6-0.4,1-0.2&#10;&#9;&#9;c0.3,0.2,0.4,0.5,0.3,0.9l-4.9,9.5C176.1,179.9,175.8,180,175.6,180z"/>
	<path class="st2_boy-swimming-48" d="M187.8,184.1c-1.8,3.3-5.6,4.9-9.2,4c-2.2-0.6-4.2-1.9-5.5-3.8c-0.5-0.7-0.8-1.4-1-2.3c-0.2-1.5,0.5-3,1.7-3.8&#10;&#9;&#9;c1-0.8,2.2-1.3,3.4-1.4c1,0,2,0.1,2.9,0.3"/>
	<path class="st1_boy-swimming-48" d="M180.6,189c-0.7,0-1.4-0.1-2.1-0.3c-2.4-0.6-4.5-2.1-5.9-4.1c-0.6-0.8-1-1.6-1.2-2.6c-0.2-1.7,0.5-3.5,2-4.5&#10;&#9;&#9;c1.1-0.9,2.4-1.4,3.8-1.6c1.1,0,2.1,0.1,3.1,0.3c0.4,0.1,0.6,0.5,0.5,0.8c0,0,0,0,0,0c-0.1,0.4-0.4,0.6-0.8,0.5c0,0,0,0,0,0&#10;&#9;&#9;c-0.9-0.2-1.8-0.3-2.7-0.3c-1.1,0.1-2.1,0.6-3,1.2c-1,0.7-1.6,1.9-1.5,3.1c0.1,0.7,0.5,1.4,0.9,2c1.3,1.7,3.1,3,5.1,3.5&#10;&#9;&#9;c3.3,0.8,6.7-0.7,8.4-3.6c0.2-0.3,0.6-0.5,0.9-0.3s0.5,0.6,0.3,0.9c0,0,0,0.1,0,0.1C186.9,187.3,183.9,189,180.6,189L180.6,189z"/>
	<path class="st1_boy-swimming-48" d="M269.5,231.1c0,0,15.2-42.7,16.6-43.7s39,14.6,39,14.6l-13.8,51.8C311.2,253.8,269.3,252.8,269.5,231.1&#10;&#9;&#9;L269.5,231.1z"/>
	<path class="st1_boy-swimming-48" d="M311.2,254.5L311.2,254.5c-7.1-0.3-14.2-1.4-21.1-3.2c-14-4-21.4-10.9-21.3-20.1c0-0.1,0-0.2,0-0.2&#10;&#9;&#9;c4.6-12.9,15.4-43,16.8-44.1c1.1-0.9,14.5,4,39.6,14.5c0.3,0.1,0.5,0.5,0.4,0.8L311.9,254C311.8,254.3,311.5,254.5,311.2,254.5z&#10;&#9;&#9; M270.2,231.3c0,19.4,35.6,21.6,40.5,21.8l13.5-50.7c-13.6-5.6-35.1-14.2-37.8-14.3C285,190.2,276,214.9,270.2,231.3L270.2,231.3z"/>
	<path class="st2_boy-swimming-48" d="M307.8,222.1c0,0,43.2-28.2,50.6-23.6s26.4,87.3,28.4,87.8c8.3,2.1,22.6,4.9,23.1,4.9&#10;&#9;&#9;c2.5-0.4,14.5-1.6,10.9,4.1c-2.9,4.7-8.3,4.3-13.1,5.5c-6.4,1.5-7.7,2-14.1,3.3c-5.8,1.2-11.7,2.4-17.5,3.5c-3.4,0.7-6.9-1-8.4-4.1&#10;&#9;&#9;l-25.1-67l-18.5,13.7L307.8,222.1L307.8,222.1z"/>
	<path class="st1_boy-swimming-48" d="M374.6,308.5c-3.2,0-6.1-1.8-7.6-4.7l-24.8-66.2l-17.7,13.1c-0.2,0.1-0.4,0.2-0.6,0.1c-0.2,0-0.4-0.2-0.5-0.3&#10;&#9;&#9;l-16.2-28.1c-0.2-0.3-0.1-0.7,0.2-0.9c0.1-0.1,11-7.1,22.6-13.6c23.8-13.1,27.6-10.8,28.8-10.1c4.7,2.9,12.5,30.8,21.6,64.2&#10;&#9;&#9;c3.1,11.4,6,22.1,6.8,23.6c8.1,2,21.8,4.7,22.7,4.8c2.3-0.3,10.1-1.2,11.9,1.6c0.6,1,0.5,2.2-0.4,3.6c-2.4,3.9-6.4,4.5-10.2,5.1&#10;&#9;&#9;c-1.1,0.2-2.2,0.4-3.3,0.6c-2.2,0.5-3.8,0.9-5.2,1.3c-2.8,0.7-4.8,1.2-9,2.1c-5.9,1.2-11.8,2.4-17.5,3.5&#10;&#9;&#9;C375.7,308.4,375.1,308.4,374.6,308.5L374.6,308.5z M342.6,235.8c0.1,0,0.1,0,0.2,0c0.2,0.1,0.4,0.2,0.5,0.4l25.1,67&#10;&#9;&#9;c1.5,2.8,4.6,4.3,7.6,3.7c5.7-1.1,11.6-2.3,17.5-3.5c4.2-0.9,6.2-1.4,8.9-2.1c1.4-0.4,3-0.8,5.2-1.3c1.1-0.3,2.3-0.5,3.4-0.6&#10;&#9;&#9;c3.7-0.6,7.2-1.1,9.2-4.5c0.6-0.9,0.7-1.6,0.4-2.1c-1-1.5-6.2-1.6-10.6-1c-0.8,0.1-15.8-3-23.4-4.9c-0.9-0.2-1.6-2.1-7.6-24.5&#10;&#9;&#9;c-6.1-22.6-16.4-60.6-20.9-63.4c-5.7-3.5-37,15.2-49.3,23.2l15.5,26.8l17.8-13.2C342.3,235.8,342.4,235.7,342.6,235.8L342.6,235.8z&#10;&#9;&#9;"/>
	<path class="st1_boy-swimming-48" d="M234.9,278.5c0,0,26.2,22.2,49.8,17.9s52.8-43.8,52.8-43.8l-26-36.8l-42.1,15.2&#10;&#9;&#9;C269.4,231.1,237.8,268.2,234.9,278.5L234.9,278.5z"/>
	<path class="st1_boy-swimming-48" d="M278.5,297.7c-21.8,0-43.8-18.4-44.1-18.6c-0.2-0.2-0.3-0.5-0.2-0.7c3-10.4,33.4-46.1,34.7-47.7&#10;&#9;&#9;c0.1-0.1,0.2-0.2,0.3-0.2l42.1-15.2c0.3-0.1,0.6,0,0.8,0.2l26,36.8c0.2,0.2,0.2,0.6,0,0.8c-5.5,7.1-11.4,13.9-17.6,20.4&#10;&#9;&#9;c-13.7,13.9-25.7,21.9-35.6,23.7C282.8,297.6,280.7,297.8,278.5,297.7L278.5,297.7z M235.7,278.3c3.2,2.6,27.4,21.4,48.9,17.5&#10;&#9;&#9;c21.7-4,48.9-39,52.1-43.1l-25.4-36l-41.4,15C267.8,234.2,239.2,268,235.7,278.3L235.7,278.3z"/>
	<path class="st2_boy-swimming-48" d="M265.9,243.1c-0.4,0-0.7-0.3-0.7-0.7c0-0.2,0.1-0.5,0.3-0.6c19.8-12.6,45.5-26.4,45.7-26.5&#10;&#9;&#9;c0.4-0.1,0.8,0,0.9,0.4c0.1,0.3,0,0.7-0.3,0.8c-0.3,0.1-25.9,13.9-45.6,26.4C266.1,243,266,243.1,265.9,243.1L265.9,243.1z"/>
	<path class="st1_boy-swimming-48" d="M181.3,197.4c-0.1,0-0.1,0-0.2,0c-6.8-2.1-13.6-4.1-19.5-5.9l-13.2-4c-3.9-1.2-5.8-2-5.7-2.4&#10;&#9;&#9;c0.1-0.4,0.5-0.6,0.9-0.5c0,0,0.1,0,0.1,0c0.9,0.3,8.9,2.8,18.3,5.6l19.5,5.8c0.4,0.1,0.6,0.5,0.5,0.9&#10;&#9;&#9;C181.9,197.2,181.6,197.4,181.3,197.4L181.3,197.4z"/>
	<path class="st1_boy-swimming-48" d="M219.7,154.5c-0.4,0-0.7-0.3-0.7-0.7c-0.1-3.9,0.9-7.7,3.1-11c0.2-0.3,0.7-0.4,1-0.1c0.3,0.2,0.4,0.7,0.1,1&#10;&#9;&#9;c-1.9,3-2.9,6.6-2.8,10.1C220.4,154.1,220.1,154.5,219.7,154.5L219.7,154.5z"/>
</g>
</svg>