<svg id="_0538_boy_swimming" xmlns="http://www.w3.org/2000/svg" xmlns:xlink="http://www.w3.org/1999/xlink" viewBox="0 0 500 500" data-imageid="boy-swimming-80" imageName="Boy Swimming" class="illustrations_image" style="width: 159px;"><defs><style>.cls-1_boy-swimming-80{fill:url(#linear-gradient);}.cls-1_boy-swimming-80,.cls-2_boy-swimming-80,.cls-3_boy-swimming-80,.cls-4_boy-swimming-80,.cls-5_boy-swimming-80,.cls-6_boy-swimming-80,.cls-7_boy-swimming-80,.cls-8_boy-swimming-80,.cls-9_boy-swimming-80{stroke-width:0px;}.cls-2_boy-swimming-80{opacity:.18;}.cls-2_boy-swimming-80,.cls-6_boy-swimming-80{isolation:isolate;}.cls-2_boy-swimming-80,.cls-6_boy-swimming-80,.cls-9_boy-swimming-80{fill:#68e1fd;}.cls-3_boy-swimming-80{fill:url(#linear-gradient-4-boy-swimming-80);}.cls-4_boy-swimming-80{fill:url(#linear-gradient-2-boy-swimming-80);}.cls-5_boy-swimming-80{fill:url(#linear-gradient-3-boy-swimming-80);}.cls-6_boy-swimming-80{opacity:.38;}.cls-7_boy-swimming-80{fill:#292526;}.cls-8_boy-swimming-80{fill:#ffaa71;}</style><linearGradient id="linear-gradient-boy-swimming-80" x1="337.33" y1="-82.49" x2="270.17" y2="89.38" gradientTransform="translate(-55.45 331.86) rotate(-.04)" gradientUnits="userSpaceOnUse"><stop offset=".01" stop-color="#231f20"/><stop offset=".13" stop-color="#231f20" stop-opacity=".69"/><stop offset=".25" stop-color="#231f20" stop-opacity=".32"/><stop offset="1" stop-color="#231f20" stop-opacity="0"/></linearGradient><linearGradient id="linear-gradient-2-boy-swimming-80" x1="317.3" y1="-35.45" x2="361.26" y2="-122.58" gradientTransform="translate(-54.16 331.41)" xlink:href="#linear-gradient-boy-swimming-80"/><linearGradient id="linear-gradient-3-boy-swimming-80" x1="163.19" y1="-135.24" x2="365.17" y2="4.93" gradientTransform="translate(-3.78 68.58) rotate(67.03)" xlink:href="#linear-gradient-boy-swimming-80"/><linearGradient id="linear-gradient-4-boy-swimming-80" x1="370.66" y1="-161.73" x2="253.96" y2="203.6" gradientTransform="translate(-54.15 331.42)" xlink:href="#linear-gradient-boy-swimming-80"/></defs><g id="background_boy-swimming-80"><path class="cls-2_boy-swimming-80 targetColor" d="M484.12,359.06c-.72-3.78-1.42-7.52-1.9-11.2-5.17-39.62,7.42-81.95-8.02-118.81-9.2-21.95-27.2-38.81-44.87-54.75-49.17-44.35-100.52-87.66-160.34-116.02-5.63-2.87-11.57-5.09-17.7-6.62-8.6-1.86-17.53-1.22-26.31-.57-21.29,1.58-43.14,3.25-62.99,11.36s-36.75,22.25-50.86,38.33c-31.34,35.79-50.19,80.79-53.73,128.23-1.72,23.24-14.76,33.69-26.45,52.45-17.5,28.12-29.22,60.59-20.23,91.71,9.51,32.84,41.17,55.93,74.6,62.99s68.4.37,100.79-10.41c21.21-7.1,42.59-15.96,64.92-14.76,20.73,1.09,39.85,10.79,59.3,18.04,34.5,12.78,71.32,18.1,108.03,15.62,14.64-1.01,29.67-3.44,42.06-11.29,13.29-8.42,21.82-22.5,25.68-37.52,3.12-11.84.4-24.5-1.97-36.78Z" style="fill: rgb(104, 225, 253);"/><path class="cls-6_boy-swimming-80 targetColor" d="M89.09,229.62c-9.31,8.35-21.29,17.49-19.87,29.93.58,5.31,3.68,10.02,4.78,15.26,6.19,29.51-49.13,44.65-43.04,74.19,2.56,12.42,16.21,19.87,28.9,20.06,12.69.18,24.67-5.28,36.38-10.18,10.62-4.44,26.18-6.73,30.68,3.86,2.84,6.79-1.28,14.2-4.37,20.95s-4.41,16.13,1.7,20.12c4.39,2.84,10.19,1.25,15.06-.7,27.2-10.82,55.95-29.57,83.25-18.99,16.61,6.43,27.68,22.46,43.5,30.63,16.03,8.3,35.04,7.68,53.08,6.84l66.15-3.04c7.17-.33,14.59-.72,20.98-4.02,9.94-5.15,15.26-16.18,19.87-26.46l27.97-62.69c1.03-1.8,1.47-3.87,1.28-5.93-1.08-5.24-8.42-5.2-13.39-7.17-9.94-3.95-10.95-17.8-7.94-28.07,3.01-10.26,8.4-20.87,5.3-31.1-7.98-26.38-56.66-15.74-67.37-41.17-1.79-4.26-2.14-9.01-3.88-13.3-5.58-13.8-23.25-18.27-38.06-16.64-14.81,1.63-29.2,7.41-44.01,6.47-20.44-1.28-37.8-14.89-53.12-28.49-15.32-13.6-31.15-28.39-51.11-32.79-11.03-2.46-24.05-.45-33.47,5.96-13.5,9.2-10.05,17.6-14.07,30.96-6.76,22.23-27.5,49.7-45.19,65.5Z" style="fill: rgb(104, 225, 253);"/></g><g id="character_boy-swimming-80"><rect class="cls-9_boy-swimming-80 targetColor" x="205.03" y="134.33" width="142.7" height="300.6" rx="54.1" ry="54.1" transform="translate(-93.44 428.28) rotate(-67.07)" style="fill: rgb(104, 225, 253);"/><path class="cls-1_boy-swimming-80" d="M115.19,262.32h0c2.78-6.56,10.35-9.63,16.91-6.86l253.08,107.06c6.56,2.78,9.63,10.35,6.86,16.91h0c-2.78,6.56-10.35,9.63-16.91,6.86l-253.08-107.06c-6.56-2.78-9.63-10.35-6.86-16.91Z"/><path class="cls-4_boy-swimming-80" d="M162.32,189.6l253.07,107.07c6.56,2.78,9.63,10.35,6.86,16.91h0c-2.78,6.56-10.35,9.63-16.91,6.86l-253.14-107.07c-6.56-2.78-9.63-10.35-6.86-16.91h0c2.77-6.57,10.35-9.65,16.92-6.88.02,0,.04.02.05.02Z"/><rect class="cls-5_boy-swimming-80" x="95.45" y="192.37" width="147.11" height="93.64" rx="31.63" ry="31.63" transform="translate(-117.13 301.65) rotate(-67.07)"/><rect class="cls-9_boy-swimming-80 targetColor" x="88.51" y="189.45" width="147.11" height="93.64" rx="31.63" ry="31.63" transform="translate(-118.67 293.48) rotate(-67.07)" style="fill: rgb(104, 225, 253);"/><path class="cls-3_boy-swimming-80" d="M160.53,229.11c-1.85,1.11-3.47,2.55-4.78,4.26-1.1,2.16-1.72,4.54-1.82,6.97-.59,4.4-1.78,8.7-3.53,12.78-3.34,7.77-8.65,14.59-11.61,22.51-2.97,7.92-3.01,17.89,3.14,23.69,6.15,5.81,16.1,5.18,24.25,2.65s16.11-6.57,24.64-6.29c9.68.33,18.17,6.15,27.14,9.81,12.78,5.21,26.89,6.05,40.22,9.64,20.27,5.45,38.33,17.04,57.96,24.36,22.19,8.22,46.45,10.9,67.37,21.92,2.54,1.33,5.21,2.84,8.06,2.6,5.15-.41,8.09-5.95,10.05-10.75,1.09-2.67,2.21-5.55,1.56-8.36-.72-3.14-3.45-5.37-6-7.33-21.55-16.5-43.61-32.74-68.27-44.01-10.7-4.91-21.8-8.87-32.89-12.78-8.52-3.02-17.04-6.05-25.55-8.9-13.15-4.39-26.42-8.36-39.39-13.19-5.98-2.23-12.05-4.76-16.52-9.3-6.63-6.76-8.52-16.67-11.36-25.69-3.54-11.17-8.95-21.65-15.98-31.02-7.71,4.06-8.38,10.85-11.47,17.96-3.4,7.36-8.63,13.71-15.2,18.45Z"/><path class="cls-8_boy-swimming-80" d="M305.15,274.11s34.64,22.47,37.04,23.89,17.04,6.74,23.45,11.02c6.42,4.27,29.58,28.78,32.24,30.11s13.88,6.13,13.86,8.26-8.26,10.99-13.32,9.85-12.78-7.69-12.78-7.69l-10.93-11.23s-31.23-20.43-33.57-22.6c-2.34-2.17-3.99-3.51-3.99-3.51,0,0-37.05-11.67-40.25-15.83-3.19-4.16,8.25-22.27,8.25-22.27Z"/><path class="cls-8_boy-swimming-80" d="M330.38,329.38c7.89,1.52,15.89,2.41,23.82,3.72,17.4,2.85,34.41,7.7,50.69,14.44,3.56,1.42,7.71,3.01,11.07,1.15,2.14-1.16,3.38-3.45,4.47-5.68.55-.94.89-1.98.99-3.07-.21-2.24-1.83-4.09-4.02-4.6-2.14-.45-4.34-.56-6.52-.33-21.9.55-40.5-17.63-62.38-19.12-6.22-.43-12.69.5-18.54-1.68-4.94-1.75-8.84-5.52-13.1-8.36-3.44-2.17-7.06-4.03-10.83-5.55-5.68-2.4-12.52-4.47-17.65-1.06-8.28,5.52-3.97,16.38,3.48,19.39,12.47,4.78,25.36,8.38,38.5,10.75Z"/><path class="cls-8_boy-swimming-80" d="M182.61,274.15c5.96,5.27,13.49,8.43,21.1,10.76,7.61,2.33,15.43,3.92,22.94,6.53,3.69,1.47,7.49,2.68,11.36,3.62,3.9.9,8,.4,11.57-1.42,2.1-1.33,3.96-3.01,5.49-4.97,3.39-3.93,6.53-8.06,9.43-12.36,1.07-1.41,1.85-3.02,2.29-4.73.77-4.05,3.05-10.8.13-13.71-2.54-2.5-10.42-1.86-13.42-3.8-3-1.94-6.64-3.69-9.94-5.68-2.84-1.66-5.48-3.58-8.13-5.49l-8.65-6.2c-2.75-1.84-5.38-3.87-7.85-6.08-3.62-3.44-6.6-7.67-10.9-10.18-4.3-2.51-10.73-2.57-13.49,1.6-1.31,2.3-1.68,5.01-1.04,7.58.5,2.57,1.52,5.01,2.16,7.55,2.37,9.34-17.04-3.11-15.15,12.14.67,5.31,7.88,6.47,3.39,11.19s-7.2,8.45-1.29,13.66Z"/><path class="cls-8_boy-swimming-80" d="M156.74,277.12c0-1.8.13-3.61.37-5.39l1.01-8.42c.08-2.41.75-4.76,1.96-6.84,1.42-2.12,4.1-3.53,4.7-6.05s-1.42-5.32-3.68-6.89c-.81-.66-1.8-1.05-2.84-1.12-2.29,0-3.73,2.41-4.63,4.51-2.94,6.84-5.2,14.03-9.21,20.27-1.31,2.04-2.84,3.96-3.97,6.08-1.62,3.11-2.9,6.39-3.82,9.78-.46,1.16-.66,2.41-.61,3.66.26,1.34.81,2.62,1.62,3.72,2.17,3.45,4.95,7.28,9.03,7.55,3.17.21,5.96-1.85,8.84-3.19,4.83-2.26,10.35-2.57,15.36-4.43,3.36-1.26,6.46-3.19,9.85-4.37,4.74-1.65,10.05-1.8,14.38-4.34,2.73-1.6,5.07-4.71,4.17-7.75-1.14-3.83-6.56-7.68-9.87-9.6-2.85-1.87-6.51-2-9.48-.34-3.85,2-7.1,5.08-10.82,7.34-1.12.67-12.36,5.68-12.36,5.82Z"/><path class="cls-8_boy-swimming-80" d="M190.87,209.56c-.24-1.72-.38-3.45-.41-5.18l-2.77,4.46c-1.69,3.13-3.67,6.1-5.92,8.86-1.96,2.12-4.47,3.56-5.52,6.46-.88,2.43-.53,5.38-2.23,7.33s-5.15,1.94-7.75.98c-1.01-.3-1.91-.89-2.58-1.7-1.31-1.89-.18-4.44,1.02-6.4,3.89-6.33,8.45-12.32,11.23-19.22.91-2.24,1.63-4.57,2.67-6.76,1.62-3.11,3.55-6.05,5.78-8.76,1.33-2.35,3.93-3.7,6.62-3.44,4.07-.21,8.82-.16,11.36,3.02,2,2.46,1.93,5.93,2.48,9.06.95,5.25,3.88,9.94,5.25,15.1.92,3.46,1.12,7.1,2.12,10.56,1.42,4.83,4.26,9.24,4.76,14.2.27,3.15-.92,6.86-3.92,7.88-3.78,1.29-10.06-.92-13.53-2.51-3.18-1.24-5.4-4.16-5.75-7.55-.38-3.55-.44-7.13-.17-10.69.11-2.84.84-5.21-.14-8.06-.67-1.97-1.66-3.82-2.23-5.82-.15-.59-.27-1.2-.35-1.8Z"/><path class="cls-8_boy-swimming-80" d="M171.32,231.31c.8-.19,1.63-.25,2.46-.18.55.13,1.08.34,1.56.62,3.48,1.92,6.53,4.51,8.99,7.64.48.57.87,1.21,1.14,1.9.3,1.23.14,2.53-.44,3.66-1.85,4.03-6.29,6.44-10.7,6.81-4.45.16-8.87-.82-12.85-2.84-1.55-.6-2.95-1.5-4.13-2.67-2.31-2.56-2.3-6.62-.78-9.71,1.12-2.3,3.72-5.81,6.27-6.67,1.18-.4,2.23.3,3.32.72,1.63.68,3.41.92,5.17.71Z"/><path class="cls-7_boy-swimming-80" d="M186.7,238.49c3.69,4.21,3.27,10.61-.94,14.3,0,0,0,0,0,0-.51.44-1.07.84-1.66,1.18-1.27.78-2.77,1.13-4.26.99-1.38-.33-2.72-.76-4.03-1.31-1.54-.34-3.11-.55-4.68-.64-2.67-.41-5.31-1.06-7.86-1.94-2.74-.75-5.38-1.81-7.88-3.15-1.7-.99-3.42-2.67-3.11-4.61.08-.32.08-.65,0-.97-.17-.32-.46-.57-.79-.7-1.43-.68-2.46-2-2.75-3.56.01-1.66.6-3.26,1.68-4.53,1.49-2.55,3.41-4.81,5.68-6.7,2.34-1.9,5.51-2.43,8.35-1.42.68.33,1.34.72,1.96,1.16.95.65,6.39,3.29,4.03,4.68-.58.27-1.24.37-1.87.27l-4.03-.17c-.38,0-.88,0-.99.41-.04.15-.04.32,0,.47.61,2.73-.25,5.58-2.27,7.51-.72.53-1.34,1.18-1.83,1.93-.37,1.08-.37,2.25,0,3.34.09.63.3,1.24.62,1.79.3.45.7.82,1.16,1.09,2.84,1.96,6.37,2.58,9.78,3.18.62.13,1.27.13,1.89,0,.64-.11,1.15-.6,1.29-1.24-1.08-.61-1.85-1.64-2.14-2.84-.68-2.65,1.11-5.21,2.06-7.78.18-.81.63-1.53,1.26-2.06.73-.29,1.53-.37,2.3-.24.78,0,1.72-.24,1.94-.99s-.44-1.5-1.06-2.03l-1.53-1.32c-1.01-.87-1.02-2.38.47-1.32,1.14.79,1.85,2.04,2.92,2.84,2.17,1.75,4.57,2.34,6.33,4.36Z"/><path class="cls-9_boy-swimming-80 targetColor" d="M241.2,289.13c-7.25,8.59,6.96,14.31,12.93,17.94,9.64,5.84,19.77,10.83,30.28,14.91.55.27,1.17.38,1.77.31.71-.25,1.31-.76,1.68-1.42,2.14-2.85,4.14-5.81,5.98-8.87.84-1.2,1.39-2.57,1.62-4.02-.03-1.33-.17-2.65-.4-3.96-.17-2.84,4.06-5.68-.3-7.77,2.37.2,5.2.21,6.62-1.69.4-.6.7-1.25.89-1.94,2.41-7,4.68-14.05,6.79-21.14-5.84-3.15-11.74-6.19-17.69-9.11-2.65-1.35-5.38-2.55-8.16-3.61-4.58-1.64-9.4-2.5-14.27-2.56-1.85-.08-3.71.15-5.48.7-6.57,2.27-7.41,8.52-10.28,14.2-3.3,6.44-7.32,12.49-11.98,18.03Z" style="fill: rgb(104, 225, 253);"/></g></svg>