<svg id="_0067_chat" xmlns="http://www.w3.org/2000/svg" viewBox="0 0 500 500" data-imageid="chatting-40" imageName="Chatting" class="illustrations_image" style="width: 158px;"><defs><style>.cls-1_chatting-40{fill:#fff;}.cls-2_chatting-40{fill:#f4a28c;}.cls-3_chatting-40{opacity:.46;}.cls-3_chatting-40,.cls-4_chatting-40,.cls-5_chatting-40,.cls-6_chatting-40,.cls-7_chatting-40,.cls-8_chatting-40,.cls-9_chatting-40,.cls-10_chatting-40,.cls-11_chatting-40{fill:none;}.cls-12_chatting-40{fill:#a5a5a5;}.cls-4_chatting-40{opacity:.37;}.cls-5_chatting-40{opacity:.42;}.cls-6_chatting-40{opacity:.58;}.cls-13_chatting-40{fill:#ce8172;}.cls-14_chatting-40{fill:#e6e6e6;}.cls-7_chatting-40{opacity:.03;}.cls-8_chatting-40{opacity:.73;}.cls-9_chatting-40{opacity:.08;}.cls-10_chatting-40{opacity:.31;}.cls-11_chatting-40{opacity:.55;}.cls-15_chatting-40{fill:#24285b;}.cls-16_chatting-40{fill:#000001;}.cls-17_chatting-40{fill:#ffd200;}.cls-18_chatting-40{fill:#68e1fd;}</style></defs><g id="panels_chatting-40"><rect class="cls-14_chatting-40" x="22.89" y="42.63" width="87.23" height="35.99"/><rect class="cls-14_chatting-40" x="22.89" y="95.81" width="87.23" height="35.99"/></g><g id="chats_chatting-40"><rect class="cls-14_chatting-40" x="270.38" y="75.1" width="162.84" height="190.61" transform="translate(.72 -1.47) rotate(.24)"/><rect class="cls-12_chatting-40" x="270.85" y="40.61" width="162.84" height="34.49" transform="translate(.25 -1.48) rotate(.24)"/><polygon class="cls-17_chatting-40" points="363.61 130.17 363.74 98.58 251.49 98.11 251.31 140.98 363.56 141.45 385.28 141.54 363.61 130.17"/><polygon class="cls-15_chatting-40" points="339.73 207.09 339.87 175.51 452.12 175.98 451.94 218.85 339.69 218.38 317.97 218.28 339.73 207.09"/><circle class="cls-1_chatting-40" cx="404.84" cy="141.85" r="10.49"/><circle class="cls-1_chatting-40" cx="296.18" cy="217.2" r="10.49"/><rect class="cls-1_chatting-40" x="272.26" y="107.74" width="69.71" height="8" transform="translate(.47 -1.29) rotate(.24)"/><g class="cls-4_chatting-40"><rect class="cls-1_chatting-40" x="272.19" y="122.98" width="69.71" height="8" transform="translate(.53 -1.29) rotate(.24)"/></g><rect class="cls-1_chatting-40" x="360.39" y="185.55" width="69.71" height="8" transform="translate(.8 -1.65) rotate(.24)"/><g class="cls-4_chatting-40"><rect class="cls-1_chatting-40" x="360.33" y="200.79" width="69.71" height="8" transform="translate(.86 -1.65) rotate(.24)"/></g><rect class="cls-12_chatting-40" x="391.84" y="120.19" width="26.29" height="5.29" transform="translate(.52 -1.7) rotate(.24)"/><g class="cls-11_chatting-40"><rect class="cls-12_chatting-40" x="283.12" y="194.9" width="26.29" height="5.29" transform="translate(.83 -1.24) rotate(.24)"/></g><circle class="cls-1_chatting-40" cx="287.36" cy="57.36" r="5.4"/><g class="cls-5_chatting-40"><circle class="cls-1_chatting-40" cx="304.12" cy="57.36" r="5.4"/></g></g><g id="sd_chatting-40" class="cls-7_chatting-40"><ellipse class="cls-16_chatting-40" cx="200.61" cy="421.64" rx="38.08" ry="169.44" transform="translate(-221.87 620.48) rotate(-89.76)"/></g><g id="mail_chatting-40"><rect class="cls-17_chatting-40" x="377.77" y="240.66" width="99.21" height="62.04" transform="translate(1.14 -1.79) rotate(.24)"/><g class="cls-3_chatting-40"><polygon class="cls-1_chatting-40" points="377.9 240.45 427.34 279.7 477.11 240.87 377.9 240.45"/></g></g><g id="person_chatting-40"><path class="cls-18_chatting-40 targetColor" d="m278.99,268.5l-37.71,39.37c1.91-11.2,3.83-26.12,6.59-45.99,10.55-75.96-46.84-85.41-46.84-85.41,0,0-26.96,158.78,5.53,162.17,2.31.24,4.43.44,6.41.58l-1.85,13.06c51.5,10.12,82.29-77.9,82.29-77.9l-14.42-5.89Z" style="fill: rgb(104, 225, 253);"/><g class="cls-3_chatting-40"><path class="cls-1_chatting-40" d="m278.99,268.5l-37.71,39.37c1.91-11.2,3.83-26.12,6.59-45.99,10.55-75.96-46.84-85.41-46.84-85.41,0,0-26.96,158.78,5.53,162.17,2.31.24,4.43.44,6.41.58l-1.85,13.06c51.5,10.12,82.29-77.9,82.29-77.9l-14.42-5.89Z"/></g><path class="cls-18_chatting-40 targetColor" d="m201.04,176.47c-4.26-1.53-8.75-2.33-13.26-2.64-14.23-.97-53.12-1.39-98.24,17.17-56.99,23.43,19.35,183.05,19.35,183.05l96.56-6.82s68.3-164.59-4.41-190.76Z" style="fill: rgb(104, 225, 253);"/><g class="cls-9_chatting-40"><path class="cls-16_chatting-40" d="m105.86,202.65s36.75,1.85,34.84,58.78c-1.91,56.93,23.93,42.15,23.93,42.15l42.36-66.81s13.4-1.49,15.2,12.62c1.16,9.11-15.02,47.91-26.64,74.29-6.66,15.11-2.62,32.79,9.9,43.54h0s-96.56,6.82-96.56,6.82l-3.32-7.24.3-164.16Z"/></g><path class="cls-2_chatting-40" d="m129.26,123.02s7.99,11.15,10.64,20.14c1.08,3.65-1.04,7.53-4.71,8.56-4.55,1.27-11.06,1.67-16.07-3.79l-9.63-8.22s-5.86-5.36-2.04-14.09c3.82-8.73,17.28-9.65,21.81-2.61Z"/><polygon class="cls-2_chatting-40" points="115.21 139.21 110.12 183.86 134.93 184.91 128.67 152 115.21 139.21"/><path class="cls-15_chatting-40" d="m126.63,125.25c-2,1.33-5.79,3.56-11.37,5.61,0,0,6.73,2.95,6.4,10.8-.34,7.84-7.78,8.93-7.78,8.93l-8.79-15.27c-2.7-4.37-2.82-9.87-.26-14.33,1.05-1.82,2.27-3.73,3.6-5.47,3.33-4.34,11.44-5.21,13.61-10.48.95-2.31,4.04-2.75,5.62-.81,3.41,4.21,6.89,11.95,2.14,18.17-.87,1.14-1.97,2.06-3.16,2.85Z"/><path class="cls-2_chatting-40" d="m122.7,140.55s-2.78-4.49-5.98-2.12c-3.21,2.37.77,8.88,5.77,6.75l.21-4.63Z"/><path class="cls-2_chatting-40" d="m133.93,130.31l5.98,2.6c1.48.64,1.78,2.6.57,3.67l-4.01,3.52-2.55-9.78Z"/><g class="cls-10_chatting-40"><path class="cls-13_chatting-40" d="m128.33,153.07s-4.67.22-8.96-2.66c0,0,.35,8.3,11.1,13.94l-2.14-11.28Z"/></g><path class="cls-15_chatting-40" d="m108.88,374.05s-50.1,18.4-38.13,46.36c8.98,20.97,55.06,3.27,85.23-5.5,10.79-3.14,22.05-4.22,33.24-3.22,20.69,1.86,46.96,8.33,55.87-3.65,13.1-17.62-3.52-33.17-39.65-40.82l-96.56,6.82Z"/><path class="cls-18_chatting-40 targetColor" d="m118.16,221.22c-6.54-29.24-46.59-32.7-58.1-5.03-4.5,10.83-7.4,24.75-6.68,42.53,2.53,62.37,14.62,115.45,61.53,107.27,46.91-8.18,91.98-106.63,91.98-106.63l-21.35-12.16-66.23,63.92s7.52-51.12-1.16-89.89Z" style="fill: rgb(104, 225, 253);"/><g class="cls-3_chatting-40"><path class="cls-1_chatting-40" d="m118.16,221.22c-6.54-29.24-46.59-32.7-58.1-5.03-4.5,10.83-7.4,24.75-6.68,42.53,2.53,62.37,14.62,115.45,61.53,107.27,46.91-8.18,91.98-106.63,91.98-106.63l-21.35-12.16-66.23,63.92s7.52-51.12-1.16-89.89Z"/></g><path class="cls-2_chatting-40" d="m188.22,248.67s11.3-20.18,23.14-15.91c11.84,4.27-4.52,9.73-4.52,9.73,0,0,8.3,7.32-2.75,15.22l-15.87-9.04Z"/><path class="cls-18_chatting-40 targetColor" d="m168.85,397.35l3.07,14.46s14.81,10.94,24.14,4.16c9.33-6.78-4.9-14.71-27.21-18.62Z" style="fill: rgb(104, 225, 253);"/><rect class="cls-17_chatting-40" x="262.56" y="215.03" width="29.77" height="52.99" transform="translate(36.93 -36.8) rotate(8.13)"/><path class="cls-2_chatting-40" d="m293.41,274.39s6.62-24.67-9.2-24.73c-15.82-.07-9.88,26.09,9.2,24.73Z"/><path class="cls-18_chatting-40 targetColor" d="m104.31,185.5s-.19-10.58,7.39-15.5c5.71-3.71,18.92,2.66,25.08,6.01,2.97,1.62,4.68,5.04,3.79,8.3-.56,2.05-2.09,3.98-5.66,4.71-8.92,1.82-30.6-3.53-30.6-3.53Z" style="fill: rgb(104, 225, 253);"/><g class="cls-3_chatting-40"><path class="cls-1_chatting-40" d="m104.31,185.5s-.19-10.58,7.39-15.5c5.71-3.71,18.92,2.66,25.08,6.01,2.97,1.62,4.68,5.04,3.79,8.3-.56,2.05-2.09,3.98-5.66,4.71-8.92,1.82-30.6-3.53-30.6-3.53Z"/></g></g><g id="plant_chatting-40"><g class="cls-6_chatting-40"><path class="cls-18_chatting-40 targetColor" d="m315.53,389.78s-20.17-5.51-24.55-24.28c0,0,31.25-6.32,32.14,25.94l-7.58-1.66Z" style="fill: rgb(104, 225, 253);"/></g><g class="cls-8_chatting-40"><path class="cls-18_chatting-40 targetColor" d="m318.01,387.78s-14.09-22.27-1.69-43.1c0,0,23.76,15.09,13.2,43.15l-11.51-.05Z" style="fill: rgb(104, 225, 253);"/></g><path class="cls-18_chatting-40 targetColor" d="m321.64,387.79s7.44-23.52,29.95-27.98c0,0,4.22,15.27-14.57,28.04l-15.38-.06Z" style="fill: rgb(104, 225, 253);"/><polygon class="cls-15_chatting-40" points="307.01 387.26 311.1 415.23 336.84 415.34 340.64 387.4 307.01 387.26"/></g></svg>