<svg version="1.1" id="Layer_1" xmlns="http://www.w3.org/2000/svg" xmlns:xlink="http://www.w3.org/1999/xlink" x="0px" y="0px" viewBox="0 0 500 500" style="width: 159px;" xml:space="preserve" data-imageid="swimming-78" imageName="Swimming" class="illustrations_image">
<style type="text/css">
	.st0_swimming-78{fill:#FECA5C;}
	.st1_swimming-78{fill:#FFF6E9;}
	.st2_swimming-78{fill:#296F86;}
	.st3_swimming-78{fill:#5AA8B5;}
	.st4_swimming-78{fill:#CCCCCC;}
	.st5_swimming-78{opacity:0.68;fill:url(#SVGID_1_);enable-background:new    ;}
	.st6_swimming-78{opacity:0.68;fill:url(#SVGID_00000114061085659866289840000011607112846554866618_);enable-background:new    ;}
	.st7_swimming-78{fill:#68E1FD;}
	.st8_swimming-78{fill:#FFCDB2;}
	.st9_swimming-78{fill:#090003;}
	.st10_swimming-78{fill:#087AE4;}
	.st11_swimming-78{opacity:0.2;fill:#090003;enable-background:new    ;}
	.st12_swimming-78{opacity:0.18;fill:#090003;enable-background:new    ;}
</style>
<path id="Base_swimming-78" class="st0_swimming-78" d="M23.6,297.7l197.1,113.8c8.4,4.9,18.9,4.9,27.3,0l230.1-133.4c8.3-4.8,11.2-15.5,6.3-23.9&#10;&#9;c-1.5-2.6-3.7-4.8-6.3-6.3l-198-113.9c-7.6-4.4-17-4.4-24.6,0L23.7,267.5c-8.3,4.8-11.2,15.4-6.4,23.8C18.8,294,21,296.2,23.6,297.7&#10;&#9;L23.6,297.7z"/>
<g id="Pool_swimming-78">
	<polygon class="st1_swimming-78" points="77.8,303.6 237.5,396.1 464.4,265 303.4,172.5 &#9;"/>
	<polygon class="st2_swimming-78" points="86.6,304.5 236.9,391.3 454.9,265.4 305.4,178.2 &#9;"/>
	<polygon class="st3_swimming-78" points="131.3,330.5 299.9,230.7 404.5,294.5 236.9,391.3 &#9;"/>
	<path class="st4_swimming-78" d="M351.1,183.5c-0.1-8.2-10-13.9-15.2-5.9c-5.1,7.8-4.6,20.5-4.4,29.4c0.1,0.9,0.8,1.5,1.7,1.4&#10;&#9;&#9;c0.8-0.1,1.4-0.7,1.4-1.4c-0.2-6.4,0.2-12.8,1.2-19.1c0.5-3.1,1.2-8.6,4.3-10.4c4.6-2.7,7.9,1.8,7.9,5.9c0.1,0.9,0.8,1.5,1.7,1.4&#10;&#9;&#9;C350.5,184.9,351.1,184.3,351.1,183.5z"/>
	<path class="st4_swimming-78" d="M335.3,173.9c-0.1-8.2-10-14-15.2-5.9c-5.1,7.8-4.6,20.5-4.4,29.4c0.1,0.9,0.8,1.5,1.7,1.4&#10;&#9;&#9;c0.8-0.1,1.4-0.7,1.4-1.4c-0.2-6.4,0.2-12.8,1.3-19.1c0.5-3.1,1.2-8.6,4.3-10.4c4.6-2.7,7.9,1.8,7.9,5.9c0.1,0.9,0.8,1.5,1.7,1.4&#10;&#9;&#9;C334.7,175.3,335.3,174.7,335.3,173.9L335.3,173.9z"/>
	<path class="st4_swimming-78" d="M332.6,202.8c-5.6-3.4-14.8-9-15.6-9.4l0.4-0.9l0-0.1h-1l0.5-0.9c0.7-0.4,0.7-0.4,16.9,9.5L332.6,202.8z"/>
	<path class="st4_swimming-78" d="M333,195c-5.5-3.3-14.4-8.8-15.2-9.1l0.4-0.9v-0.1h-1l0.5-0.9c0.7-0.4,0.7-0.4,16.5,9.2L333,195z"/>
</g>
<g id="Shadow_swimming-78">
	
		<linearGradient id="SVGID_1_-swimming-78" gradientUnits="userSpaceOnUse" x1="105.1413" y1="-2321.4893" x2="134.3913" y2="-2367.2092" gradientTransform="matrix(1 0 0 1 0 2588.55)">
		<stop offset="0" style="stop-color:#F15A24;stop-opacity:0"/>
		<stop offset="1" style="stop-color:#F15A24"/>
	</linearGradient>
	<path class="st5_swimming-78" d="M102.9,278.2l47.7-30.7l-28.9-12.7L74,264.2C82.7,269.5,94.4,272.7,102.9,278.2z"/>
	<ellipse class="st2_swimming-78" cx="367.1" cy="289.6" rx="11" ry="3.5"/>
	
		<ellipse transform="matrix(0.8853 -0.465 0.465 0.8853 -120.5541 158.2605)" class="st2_swimming-78" cx="260.6" cy="323.5" rx="62.7" ry="8.9"/>
	
		<linearGradient id="SVGID_00000165201960773970878110000018369018724822396067_-swimming-78" gradientUnits="userSpaceOnUse" x1="197.019" y1="-2370.8608" x2="226.269" y2="-2416.6008" gradientTransform="matrix(1 0 0 1 0 2588.55)">
		<stop offset="0" style="stop-color:#F15A24;stop-opacity:0"/>
		<stop offset="1" style="stop-color:#F15A24"/>
	</linearGradient>
	<path style="opacity:0.68;fill:url(#SVGID_00000165201960773970878110000018369018724822396067_);enable-background:new    ;" d="&#10;&#9;&#9;M194.8,228.8l47.7-30.7l-28.9-12.7l-47.7,29.4C174.6,220.1,186.3,223.3,194.8,228.8z"/>
</g>
<g id="Ball_swimming-78">
	<circle class="st7_swimming-78 targetColor" cx="368.5" cy="247.5" r="19.1" style="fill: rgb(104, 225, 253);"/>
	<path class="st7_swimming-78 targetColor" d="M368.5,228.5c-1.8,0-3.5,0.2-5.2,0.7c8.5,3.5,14.3,11.4,15.1,20.6c0.4,5.3-0.5,10.7-2.8,15.5&#10;&#9;&#9;c9.8-3.9,14.6-15,10.7-24.8C383.4,233.3,376.3,228.5,368.5,228.5L368.5,228.5z" style="fill: rgb(104, 225, 253);"/>
	<path class="st1_swimming-78" d="M365.6,228.5c-1.1,0.2-2.1,0.5-3.1,0.8c-5.5,12.5-3.1,27,6,37.1h0.3c3.4,0,6.7-0.9,9.6-2.6&#10;&#9;&#9;C379.6,251.3,374.9,235.7,365.6,228.5z"/>
</g>
<g id="Character_swimming-78">
	<path class="st7_swimming-78 targetColor" d="M227.3,283.7c2.4-1.1,18.6,12.6,18.6,12.6s-13.5,3.5-19.4,4.1c-4.1,0.4-8.1,0.4-12.2,0&#10;&#9;&#9;C214.4,300.4,213.5,289.7,227.3,283.7z" style="fill: rgb(104, 225, 253);"/>
	<path class="st8_swimming-78" d="M305.2,246.1c-3.8-0.2-4.8,1.8-6.2,1.1s-4.5-1.6-5.2-0.2c-0.5,1.3-0.8,2.6-1,3.9c-2,1.2-4.1,2.2-6.3,3&#10;&#9;&#9;c1.5,1.4,2.6,2,4.1,3.4c4.2-2.7,7.7-4.9,8.7-5.4c2.7-1.2,9.2-4.1,9.2-4.1S309,246.4,305.2,246.1z"/>
	<path class="st8_swimming-78" d="M318.5,250.9c-3.8-0.2-4.8,1.8-6.2,1.1s-4.5-1.6-5.2-0.2c-0.5,1.3-0.8,2.7-0.8,4.1c-4,1.5-7.9,3.2-11.7,5.3&#10;&#9;&#9;c0.1,0.1-0.2-0.6,0-0.5c1.9,1.4,3.9,2.6,6,3.7c5.6-3.6,10.8-7,12.1-7.5c2.7-1.2,9.2-4.1,9.2-4.1S322.3,251.1,318.5,250.9z"/>
	<path class="st7_swimming-78 targetColor" d="M293,251.5c-0.2-0.1-0.4-0.3-0.4-0.6c-3.1,1-9.1,3-11.9,5.5c-3.8,3.4-22.2,10.3-22.2,10.3l-24.4,11l-29.9,16.2&#10;&#9;&#9;c0,0,8.5,3.5,21.4,0s13.5-6.4,20.9-9.2s23.9-14.7,27.6-16.4c2.9-1.4,16.6-10.5,23.5-14.8C296,252.9,294.5,252.1,293,251.5z" style="fill: rgb(104, 225, 253);"/>
	<path class="st7_swimming-78 targetColor" d="M306.3,255.8c-2.6,0.8-9.8,3-12.9,5.7c-3.8,3.4-22.2,10.3-22.2,10.3l-24.4,11L216.9,299c0,0,8.5,3.5,21.4,0&#10;&#9;&#9;s13.5-6.4,20.9-9.2s23.9-14.7,27.6-16.4c3-1.4,17.6-11.1,24.2-15.2C309.3,257.5,307.8,256.7,306.3,255.8z" style="fill: rgb(104, 225, 253);"/>
	<path class="st8_swimming-78" d="M205.5,295.9c0,0-7.4,5.6-10.6,7.6s-8,6.2-13.2,10.3c-3.4,2.7-12,8.5-11.9,10.2s8.8-1.7,9.6-0.9&#10;&#9;&#9;s-1.4,3.9,0.4,3.6s1.9-5.6,2.8-6.3s12.4-9.1,15-11.3c2-1.6,19.8-10.8,19.8-10.8"/>
	<path class="st7_swimming-78 targetColor" d="M206.8,294.2c0,0-12.5,10-15.7,11.9s-7.7,6-12.7,10c1.6,1.3,3.3,2.4,4.9,3.6c3.8-2.8,8.8-6.5,10.4-7.9&#10;&#9;&#9;c2-1.6,19.8-11,19.8-11L206.8,294.2z" style="fill: rgb(104, 225, 253);"/>
	<path class="st8_swimming-78" d="M202.4,295.5c0,0,4.1,4.8,8.8,5.6s6.2-1.8,6.1-4.8c-0.2-2.3-0.8-4.5-1.7-6.6&#10;&#9;&#9;C215.6,289.8,203.6,284.5,202.4,295.5z"/>
	<path class="st9_swimming-78" d="M212.4,288.7c-0.1-0.3-0.6-0.3-0.6,0.1c-0.2,1.9-0.7,3.8-1.5,5.6c-0.1,0.2,0,0.4,0.2,0.5c0.1,0,0.1,0,0.2,0&#10;&#9;&#9;l-0.1,0.3c0,0.2,0.1,0.3,0.3,0.4c0.2,0,0.3-0.1,0.4-0.2c0.6-2.1,1.1-4.2,1.6-6.3c0-0.2-0.1-0.4-0.3-0.4L212.4,288.7z"/>
	<path class="st9_swimming-78" d="M207.8,297.8c-0.2,0.4-0.5,0.7-0.9,1c-0.3,0.3,0.1,0.7,0.5,0.5c0.4-0.3,0.7-0.7,1-1.1&#10;&#9;&#9;C208.6,297.8,208,297.4,207.8,297.8z"/>
	<path class="st10_swimming-78" d="M211.2,293.9L211.2,293.9c-0.7-0.5-1.6-0.5-2.3,0c-1,0.7-1.9,3-1.2,4c0.5,0.7,1.5,0.5,2.2,0.2&#10;&#9;&#9;c1-0.4,1.7-1.3,1.8-2.4C211.8,295,211.7,294.4,211.2,293.9z"/>
	<path class="st7_swimming-78 targetColor" d="M203.1,296.3c1.2-1.5,2.3-3,3.2-4.7c1-2,3.3-3.2,5.5-2.7c1.7,0.5,3.3,1.5,4.6,2.7c0,0-0.6-7.8-5.6-9&#10;&#9;&#9;s-9.6-0.1-11.1,6S203.1,296.3,203.1,296.3z" style="fill: rgb(104, 225, 253);"/>
	<path class="st8_swimming-78" d="M215.1,288.5c0.5-0.4,2-2.9,4.7-3.9c3.2-1.4,6.1-3.4,8.7-5.7c1.5-1.5,9-13.5,13.6-10.8s5.7,17.9,5.7,17.9&#10;&#9;&#9;s6.6,10.4,6,12.4s-0.7,4.5-2.2,3.5c-1.7-1.4-3.1-3.1-4.4-4.9c0,0,0.9,2.4-0.3,2.3s-3.1-4.9-3.1-4.9l-1.5-7.6l-2.7-7.1l-8.5,10.5"/>
	<path class="st7_swimming-78 targetColor" d="M241.9,285.3h1c1.6-0.3,3.3-0.6,4.9-0.7c-0.4-3.9-1.8-14.2-5.6-16.5c-4.7-2.7-12.1,9.4-13.6,10.8&#10;&#9;&#9;c-2.6,2.3-5.5,4.3-8.7,5.7c-2.7,0.9-4.1,3.5-4.7,3.9l16,1.7l8.5-10.5L241.9,285.3z" style="fill: rgb(104, 225, 253);"/>
</g>
<g id="Sunbeds_swimming-78">
	<path class="st2_swimming-78" d="M107.7,222.6L107.7,222.6c0.7,0,1.3,0.6,1.3,1.3v20.2c0,0.7-0.6,1.3-1.3,1.3h0c-0.7,0-1.3-0.6-1.3-1.3v-20.2&#10;&#9;&#9;C106.4,223.2,107,222.6,107.7,222.6z"/>
	<path class="st2_swimming-78" d="M133.8,232.8L133.8,232.8c0.7,0,1.3,0.6,1.3,1.3v20.2c0,0.7-0.6,1.3-1.3,1.3h0c-0.7,0-1.3-0.6-1.3-1.3v-20.2&#10;&#9;&#9;C132.5,233.4,133,232.8,133.8,232.8z"/>
	<path class="st2_swimming-78" d="M148.4,233.1c-0.1-0.1-0.2-0.2-0.3-0.3v14.7c0.2,0.7,1,1.1,1.7,0.9c0.4-0.1,0.7-0.5,0.9-0.9v-13.1&#10;&#9;&#9;C149.8,234,149.1,233.6,148.4,233.1z"/>
	<polygon class="st7_swimming-78 targetColor" points="111.6,197.9 95.6,208.2 108.2,229 125.5,219.5 &#9;" style="fill: rgb(104, 225, 253);"/>
	<polygon class="st7_swimming-78 targetColor" points="125.5,219.5 152,234 135.1,244.5 108.2,229 &#9;" style="fill: rgb(104, 225, 253);"/>
	<path class="st2_swimming-78" d="M199.6,175.2L199.6,175.2c0.7,0,1.3,0.6,1.3,1.3v20.2c0,0.7-0.6,1.3-1.3,1.3l0,0l0,0c-0.7,0-1.3-0.6-1.3-1.3&#10;&#9;&#9;v-20.2C198.3,175.8,198.9,175.2,199.6,175.2z"/>
	<path class="st2_swimming-78" d="M225.7,185.4L225.7,185.4c0.7,0,1.3,0.6,1.3,1.3l0,0v20.2c0,0.7-0.6,1.3-1.3,1.3l0,0c-0.7,0-1.3-0.6-1.3-1.3&#10;&#9;&#9;v-20.2C224.4,186,225,185.4,225.7,185.4L225.7,185.4z"/>
	<path class="st2_swimming-78" d="M240.3,185.7c-0.1-0.1-0.2-0.2-0.3-0.3V200c0.2,0.7,1,1.1,1.7,0.9c0,0,0,0,0,0c0.4-0.1,0.7-0.5,0.9-0.9v-13.1&#10;&#9;&#9;C241.8,186.6,241,186.1,240.3,185.7z"/>
	<polygon class="st7_swimming-78 targetColor" points="203.6,150.5 187.5,160.7 200.1,181.6 217.4,172.1 &#9;" style="fill: rgb(104, 225, 253);"/>
	<polygon class="st7_swimming-78 targetColor" points="217.4,172.1 244,186.6 227,197.1 200.1,181.6 &#9;" style="fill: rgb(104, 225, 253);"/>
</g>
<g id="Umbrella_swimming-78">
	<path class="st2_swimming-78" d="M169.3,194.9v-53.7h-6.9v52.6C164.6,194.9,167,195.3,169.3,194.9z"/>
	<path class="st7_swimming-78 targetColor" d="M133.1,162.8c13,2,26.2,2.6,39.4,1.9c13.2-0.8,30.2-2.9,42.1-10.7c-1.9-11-24.9-19.6-53.1-19.6&#10;&#9;&#9;c-29.4,0-53.2,9.4-53.2,21.1v0.7C115.3,160.9,124.9,161.7,133.1,162.8z" style="fill: rgb(104, 225, 253);"/>
	<path class="st11_swimming-78" d="M133.1,162.8c13,2,26.2,2.6,39.4,1.9c13.2-0.8,30.2-2.9,42.1-10.7c-1.9-11-24.9-19.6-53.1-19.6&#10;&#9;&#9;c-29.4,0-53.2,9.4-53.2,21.1v0.7C115.3,160.9,124.9,161.7,133.1,162.8z"/>
	<path class="st2_swimming-78" d="M162.5,196.4v27.8h6.9v-27C167.1,197.5,164.7,197.2,162.5,196.4z"/>
	<ellipse class="st7_swimming-78 targetColor" cx="164.3" cy="198.7" rx="36.5" ry="14.2" style="fill: rgb(104, 225, 253);"/>
	<ellipse class="st12_swimming-78" cx="164.3" cy="198.7" rx="36.5" ry="14.2"/>
	<path class="st7_swimming-78 targetColor" d="M108.2,155.5v-12.7c0,0,45.7-28.8,50.8-28.4s57,20.8,55.6,23.3s0,17.8,0,17.8" style="fill: rgb(104, 225, 253);"/>
	<path class="st11_swimming-78" d="M108.2,155.5v-12.7c0,0,45.7-28.8,50.8-28.4s57,20.8,55.6,23.3s0,17.8,0,17.8"/>
</g>
</svg>